<svg width="330" height="150" viewBox="0 0 330 150" fill="none" xmlns="http://www.w3.org/2000/svg">
<path d="M134.266 11.3359V9.67188L144.156 2.3125L145.141 3.67188L136.047 10.5156L145.141 17.3594L144.156 18.7188L134.266 11.3359ZM147.18 16.5156L148.539 15.7188C149.461 17.1719 150.711 17.8984 152.289 17.8984C153.242 17.8984 154 17.7266 154.562 17.3828C155.141 17.0391 155.43 16.5391 155.43 15.8828C155.43 15.6016 155.359 15.3516 155.219 15.1328C155.078 14.8984 154.922 14.7109 154.75 14.5703C154.594 14.4141 154.305 14.25 153.883 14.0781C153.461 13.8906 153.109 13.7578 152.828 13.6797C152.562 13.5859 152.117 13.4375 151.492 13.2344C150.945 13.0625 150.477 12.8906 150.086 12.7188C149.695 12.5469 149.289 12.3203 148.867 12.0391C148.445 11.7422 148.117 11.3828 147.883 10.9609C147.664 10.5391 147.555 10.0547 147.555 9.50781C147.555 8.46094 147.977 7.60938 148.82 6.95312C149.664 6.29688 150.82 5.96875 152.289 5.96875C153.32 5.96875 154.266 6.24219 155.125 6.78906C155.984 7.33594 156.602 7.97656 156.977 8.71094L155.758 9.50781C155.43 8.96094 154.953 8.49219 154.328 8.10156C153.719 7.69531 153.039 7.49219 152.289 7.49219C151.336 7.49219 150.609 7.67969 150.109 8.05469C149.625 8.41406 149.383 8.90625 149.383 9.53125C149.383 9.89062 149.477 10.2188 149.664 10.5156C149.852 10.7969 150.133 11.0469 150.508 11.2656C150.898 11.4688 151.25 11.6328 151.562 11.7578C151.891 11.8672 152.32 12.0078 152.852 12.1797C153.305 12.3203 153.703 12.4531 154.047 12.5781C154.406 12.7031 154.797 12.875 155.219 13.0938C155.641 13.3125 155.992 13.5469 156.273 13.7969C156.555 14.0312 156.789 14.3359 156.977 14.7109C157.164 15.0703 157.258 15.4609 157.258 15.8828C157.258 16.8828 156.812 17.7266 155.922 18.4141C155.047 19.0859 153.836 19.4219 152.289 19.4219C151.164 19.4219 150.164 19.1719 149.289 18.6719C148.414 18.1562 147.711 17.4375 147.18 16.5156ZM158.547 7.91406V6.39062H160.75V2.35938H162.578V6.39062H165.906V7.91406H162.578V15.2969C162.578 16.0781 162.727 16.6328 163.023 16.9609C163.32 17.2891 163.797 17.4531 164.453 17.4531H165.906V19H164.219C161.906 19 160.75 17.8203 160.75 15.4609V7.91406H158.547ZM166.82 6.39062H168.93L171.531 13.7734C171.922 14.8672 172.273 15.9297 172.586 16.9609H172.68C172.914 16.1953 173.258 15.1328 173.711 13.7734L176.195 6.39062H178.258L172.82 21.1094C172.352 22.3594 171.805 23.2344 171.18 23.7344C170.57 24.25 169.82 24.5078 168.93 24.5078H168.227V23.0078H168.648C169.242 23.0078 169.742 22.8359 170.148 22.4922C170.57 22.1484 170.945 21.5312 171.273 20.6406L171.742 19.1641L166.82 6.39062ZM180.578 19V0.789062H182.359V19H180.578ZM185.547 12.6016C185.547 10.6328 186.078 9.03906 187.141 7.82031C188.203 6.58594 189.578 5.96875 191.266 5.96875C192.984 5.96875 194.336 6.57031 195.32 7.77344C196.305 8.96094 196.797 10.4844 196.797 12.3438C196.797 12.5625 196.781 12.875 196.75 13.2812H187.375C187.375 14.5469 187.727 15.6328 188.43 16.5391C189.133 17.4453 190.109 17.8984 191.359 17.8984C192.172 17.8984 192.891 17.7109 193.516 17.3359C194.141 16.9453 194.625 16.4297 194.969 15.7891L196.516 16.2578C196.125 17.1797 195.492 17.9375 194.617 18.5312C193.742 19.125 192.656 19.4219 191.359 19.4219C189.609 19.4219 188.203 18.7969 187.141 17.5469C186.078 16.2969 185.547 14.6484 185.547 12.6016ZM187.422 11.8984H194.969C194.969 10.6641 194.633 9.625 193.961 8.78125C193.289 7.92188 192.391 7.49219 191.266 7.49219C190.125 7.49219 189.203 7.92969 188.5 8.80469C187.812 9.67969 187.453 10.7109 187.422 11.8984ZM199.938 18.7188L199 17.3594L208.047 10.5156L199 3.67188L199.938 2.3125L209.875 9.67188V11.3359L199.938 18.7188ZM134.266 131.336V129.672L144.156 122.312L145.141 123.672L136.047 130.516L145.141 137.359L144.156 138.719L134.266 131.336ZM146.031 140.336L152.781 120.344H154.703L147.953 140.336H146.031ZM155.242 136.516L156.602 135.719C157.523 137.172 158.773 137.898 160.352 137.898C161.305 137.898 162.062 137.727 162.625 137.383C163.203 137.039 163.492 136.539 163.492 135.883C163.492 135.602 163.422 135.352 163.281 135.133C163.141 134.898 162.984 134.711 162.812 134.57C162.656 134.414 162.367 134.25 161.945 134.078C161.523 133.891 161.172 133.758 160.891 133.68C160.625 133.586 160.18 133.438 159.555 133.234C159.008 133.062 158.539 132.891 158.148 132.719C157.758 132.547 157.352 132.32 156.93 132.039C156.508 131.742 156.18 131.383 155.945 130.961C155.727 130.539 155.617 130.055 155.617 129.508C155.617 128.461 156.039 127.609 156.883 126.953C157.727 126.297 158.883 125.969 160.352 125.969C161.383 125.969 162.328 126.242 163.188 126.789C164.047 127.336 164.664 127.977 165.039 128.711L163.82 129.508C163.492 128.961 163.016 128.492 162.391 128.102C161.781 127.695 161.102 127.492 160.352 127.492C159.398 127.492 158.672 127.68 158.172 128.055C157.688 128.414 157.445 128.906 157.445 129.531C157.445 129.891 157.539 130.219 157.727 130.516C157.914 130.797 158.195 131.047 158.57 131.266C158.961 131.469 159.312 131.633 159.625 131.758C159.953 131.867 160.383 132.008 160.914 132.18C161.367 132.32 161.766 132.453 162.109 132.578C162.469 132.703 162.859 132.875 163.281 133.094C163.703 133.312 164.055 133.547 164.336 133.797C164.617 134.031 164.852 134.336 165.039 134.711C165.227 135.07 165.32 135.461 165.32 135.883C165.32 136.883 164.875 137.727 163.984 138.414C163.109 139.086 161.898 139.422 160.352 139.422C159.227 139.422 158.227 139.172 157.352 138.672C156.477 138.156 155.773 137.438 155.242 136.516ZM166.609 127.914V126.391H168.812V122.359H170.641V126.391H173.969V127.914H170.641V135.297C170.641 136.078 170.789 136.633 171.086 136.961C171.383 137.289 171.859 137.453 172.516 137.453H173.969V139H172.281C169.969 139 168.812 137.82 168.812 135.461V127.914H166.609ZM174.883 126.391H176.992L179.594 133.773C179.984 134.867 180.336 135.93 180.648 136.961H180.742C180.977 136.195 181.32 135.133 181.773 133.773L184.258 126.391H186.32L180.883 141.109C180.414 142.359 179.867 143.234 179.242 143.734C178.633 144.25 177.883 144.508 176.992 144.508H176.289V143.008H176.711C177.305 143.008 177.805 142.836 178.211 142.492C178.633 142.148 179.008 141.531 179.336 140.641L179.805 139.164L174.883 126.391ZM188.641 139V120.789H190.422V139H188.641ZM193.609 132.602C193.609 130.633 194.141 129.039 195.203 127.82C196.266 126.586 197.641 125.969 199.328 125.969C201.047 125.969 202.398 126.57 203.383 127.773C204.367 128.961 204.859 130.484 204.859 132.344C204.859 132.562 204.844 132.875 204.812 133.281H195.438C195.438 134.547 195.789 135.633 196.492 136.539C197.195 137.445 198.172 137.898 199.422 137.898C200.234 137.898 200.953 137.711 201.578 137.336C202.203 136.945 202.688 136.43 203.031 135.789L204.578 136.258C204.188 137.18 203.555 137.938 202.68 138.531C201.805 139.125 200.719 139.422 199.422 139.422C197.672 139.422 196.266 138.797 195.203 137.547C194.141 136.297 193.609 134.648 193.609 132.602ZM195.484 131.898H203.031C203.031 130.664 202.695 129.625 202.023 128.781C201.352 127.922 200.453 127.492 199.328 127.492C198.188 127.492 197.266 127.93 196.562 128.805C195.875 129.68 195.516 130.711 195.484 131.898ZM208 138.719L207.062 137.359L216.109 130.516L207.062 123.672L208 122.312L217.938 129.672V131.336L208 138.719Z" fill="#0073C0"/>
<path d="M148.516 42.6719C148.516 44.2344 148.836 45.5 149.477 46.4688C150.117 47.4219 151 47.8984 152.125 47.8984C153.188 47.8984 154.07 47.4297 154.773 46.4922C155.477 45.5547 155.828 44.2812 155.828 42.6719C155.828 41.1562 155.492 39.9141 154.82 38.9453C154.164 37.9766 153.266 37.4922 152.125 37.4922C151.062 37.4922 150.195 37.9844 149.523 38.9688C148.852 39.9375 148.516 41.1719 148.516 42.6719ZM146.734 54.5078V36.3906H148.469V38.6641C148.828 37.8516 149.344 37.2031 150.016 36.7188C150.703 36.2188 151.484 35.9688 152.359 35.9688C153.891 35.9688 155.156 36.5781 156.156 37.7969C157.156 39.0156 157.656 40.6406 157.656 42.6719C157.656 44.8438 157.133 46.5156 156.086 47.6875C155.039 48.8438 153.797 49.4219 152.359 49.4219C151.422 49.4219 150.625 49.1797 149.969 48.6953C149.312 48.1953 148.828 47.5703 148.516 46.8203V54.5078H146.734ZM166.117 41.3828V39.9766H166.773C167.93 39.9766 168.508 38.9062 168.508 36.7656V32.1953C168.508 31.2266 168.773 30.4766 169.305 29.9453C169.836 29.3984 170.508 29.125 171.32 29.125H173.172V30.625H171.625C171.25 30.625 170.938 30.7812 170.688 31.0938C170.438 31.4062 170.312 31.8516 170.312 32.4297V37.0703C170.312 38.0703 170.156 38.8359 169.844 39.3672C169.547 39.8828 169.117 40.3203 168.555 40.6797C169.727 41.2891 170.312 42.3906 170.312 43.9844V48.6016C170.312 49.2578 170.438 49.75 170.688 50.0781C170.938 50.4062 171.266 50.5703 171.672 50.5703H173.172V52.0469H171.32C170.523 52.0469 169.852 51.7969 169.305 51.2969C168.773 50.7969 168.508 50.0391 168.508 49.0234V44.2891C168.508 43.3672 168.344 42.6562 168.016 42.1562C167.688 41.6406 167.273 41.3828 166.773 41.3828H166.117ZM157.469 72.6953C157.469 70.6953 157.977 69.0781 158.992 67.8438C160.008 66.5938 161.375 65.9688 163.094 65.9688C164.219 65.9688 165.18 66.2969 165.977 66.9531C166.789 67.5938 167.328 68.3594 167.594 69.25L166.047 69.6953C165.812 69.0703 165.43 68.5469 164.898 68.125C164.383 67.7031 163.781 67.4922 163.094 67.4922C161.938 67.4922 161.016 67.9844 160.328 68.9688C159.641 69.9531 159.297 71.1953 159.297 72.6953C159.297 74.2891 159.656 75.5547 160.375 76.4922C161.094 77.4297 162 77.8984 163.094 77.8984C163.828 77.8984 164.492 77.6641 165.086 77.1953C165.695 76.7109 166.125 76.1562 166.375 75.5312L167.922 76.0234C167.594 76.9609 166.992 77.7656 166.117 78.4375C165.258 79.0938 164.25 79.4219 163.094 79.4219C161.422 79.4219 160.062 78.8125 159.016 77.5938C157.984 76.375 157.469 74.7422 157.469 72.6953ZM171.344 72.6953C171.344 74.2891 171.711 75.5547 172.445 76.4922C173.18 77.4297 174.094 77.8984 175.188 77.8984C176.266 77.8984 177.172 77.4297 177.906 76.4922C178.656 75.5547 179.031 74.2891 179.031 72.6953C179.031 71.0703 178.656 69.7969 177.906 68.875C177.156 67.9531 176.25 67.4922 175.188 67.4922C174.109 67.4922 173.195 67.9531 172.445 68.875C171.711 69.7969 171.344 71.0703 171.344 72.6953ZM169.516 72.6953C169.516 70.7734 170.008 69.1719 170.992 67.8906C171.992 66.6094 173.391 65.9688 175.188 65.9688C176.969 65.9688 178.359 66.6094 179.359 67.8906C180.359 69.1719 180.859 70.7734 180.859 72.6953C180.859 73.5078 180.75 74.2969 180.531 75.0625C180.328 75.8281 180.008 76.5469 179.57 77.2188C179.148 77.875 178.555 78.4062 177.789 78.8125C177.039 79.2188 176.172 79.4219 175.188 79.4219C174.219 79.4219 173.352 79.2266 172.586 78.8359C171.836 78.4297 171.242 77.8984 170.805 77.2422C170.383 76.5703 170.062 75.8516 169.844 75.0859C169.625 74.3203 169.516 73.5234 169.516 72.6953ZM184.047 79V60.7891H185.828V79H184.047ZM190.844 72.6953C190.844 74.2891 191.211 75.5547 191.945 76.4922C192.68 77.4297 193.594 77.8984 194.688 77.8984C195.766 77.8984 196.672 77.4297 197.406 76.4922C198.156 75.5547 198.531 74.2891 198.531 72.6953C198.531 71.0703 198.156 69.7969 197.406 68.875C196.656 67.9531 195.75 67.4922 194.688 67.4922C193.609 67.4922 192.695 67.9531 191.945 68.875C191.211 69.7969 190.844 71.0703 190.844 72.6953ZM189.016 72.6953C189.016 70.7734 189.508 69.1719 190.492 67.8906C191.492 66.6094 192.891 65.9688 194.688 65.9688C196.469 65.9688 197.859 66.6094 198.859 67.8906C199.859 69.1719 200.359 70.7734 200.359 72.6953C200.359 73.5078 200.25 74.2969 200.031 75.0625C199.828 75.8281 199.508 76.5469 199.07 77.2188C198.648 77.875 198.055 78.4062 197.289 78.8125C196.539 79.2188 195.672 79.4219 194.688 79.4219C193.719 79.4219 192.852 79.2266 192.086 78.8359C191.336 78.4297 190.742 77.8984 190.305 77.2422C189.883 76.5703 189.562 75.8516 189.344 75.0859C189.125 74.3203 189.016 73.5234 189.016 72.6953ZM203.266 79V66.3906H205V68.2188C205.25 67.6562 205.664 67.1406 206.242 66.6719C206.82 66.2031 207.562 65.9688 208.469 65.9688C209.141 65.9688 209.734 66.0781 210.25 66.2969V67.9375C209.688 67.7188 209.094 67.6094 208.469 67.6094C207.406 67.6094 206.578 68.0078 205.984 68.8047C205.391 69.6016 205.094 70.6562 205.094 71.9688V79H203.266ZM212.828 77.0312V74.2422H215.781V77.0312H212.828ZM212.828 67.75V64.9609H215.781V67.75H212.828ZM226.164 79V66.3906H227.898V68.2188C228.148 67.6562 228.562 67.1406 229.141 66.6719C229.719 66.2031 230.461 65.9688 231.367 65.9688C232.039 65.9688 232.633 66.0781 233.148 66.2969V67.9375C232.586 67.7188 231.992 67.6094 231.367 67.6094C230.305 67.6094 229.477 68.0078 228.883 68.8047C228.289 69.6016 227.992 70.6562 227.992 71.9688V79H226.164ZM235.938 72.6953C235.938 74.2891 236.305 75.5547 237.039 76.4922C237.773 77.4297 238.688 77.8984 239.781 77.8984C240.859 77.8984 241.766 77.4297 242.5 76.4922C243.25 75.5547 243.625 74.2891 243.625 72.6953C243.625 71.0703 243.25 69.7969 242.5 68.875C241.75 67.9531 240.844 67.4922 239.781 67.4922C238.703 67.4922 237.789 67.9531 237.039 68.875C236.305 69.7969 235.938 71.0703 235.938 72.6953ZM234.109 72.6953C234.109 70.7734 234.602 69.1719 235.586 67.8906C236.586 66.6094 237.984 65.9688 239.781 65.9688C241.562 65.9688 242.953 66.6094 243.953 67.8906C244.953 69.1719 245.453 70.7734 245.453 72.6953C245.453 73.5078 245.344 74.2969 245.125 75.0625C244.922 75.8281 244.602 76.5469 244.164 77.2188C243.742 77.875 243.148 78.4062 242.383 78.8125C241.633 79.2188 240.766 79.4219 239.781 79.4219C238.812 79.4219 237.945 79.2266 237.18 78.8359C236.43 78.4297 235.836 77.8984 235.398 77.2422C234.977 76.5703 234.656 75.8516 234.438 75.0859C234.219 74.3203 234.109 73.5234 234.109 72.6953ZM246.672 66.3906H248.781L251.383 73.7734C251.773 74.8672 252.125 75.9297 252.438 76.9609H252.531C252.766 76.1953 253.109 75.1328 253.562 73.7734L256.047 66.3906H258.109L252.672 81.1094C252.203 82.3594 251.656 83.2344 251.031 83.7344C250.422 84.25 249.672 84.5078 248.781 84.5078H248.078V83.0078H248.5C249.094 83.0078 249.594 82.8359 250 82.4922C250.422 82.1484 250.797 81.5312 251.125 80.6406L251.594 79.1641L246.672 66.3906ZM260.711 75.7656C260.711 76.3594 260.961 76.8672 261.461 77.2891C261.961 77.6953 262.648 77.8984 263.523 77.8984C264.633 77.8984 265.578 77.5391 266.359 76.8203C267.156 76.1016 267.555 75.1875 267.555 74.0781V72.3203C266.867 72.4922 265.773 72.6953 264.273 72.9297C263.055 73.1484 262.156 73.4844 261.578 73.9375C261 74.3906 260.711 75 260.711 75.7656ZM258.883 75.9062C258.883 73.5625 260.695 72.1094 264.32 71.5469C265.945 71.2812 267.023 71.0625 267.555 70.8906V70.1641C267.555 69.3828 267.273 68.7344 266.711 68.2188C266.148 67.7031 265.352 67.4453 264.32 67.4453C263.57 67.4453 262.844 67.625 262.141 67.9844C261.453 68.3281 260.867 68.7969 260.383 69.3906L259.211 68.4062C259.836 67.6875 260.586 67.1016 261.461 66.6484C262.352 66.1953 263.289 65.9688 264.273 65.9688C267.648 65.9688 269.336 67.6172 269.336 70.9141V79H267.602V76.9375C267.352 77.6094 266.836 78.1953 266.055 78.6953C265.273 79.1797 264.352 79.4219 263.289 79.4219C261.898 79.4219 260.812 79.0938 260.031 78.4375C259.266 77.7812 258.883 76.9375 258.883 75.9062ZM273.25 79V60.7891H275.031V79H273.25ZM279.203 79V60.7891H280.984V68.6406C281.203 67.9844 281.664 67.375 282.367 66.8125C283.07 66.25 283.891 65.9688 284.828 65.9688C286.391 65.9688 287.664 66.5703 288.648 67.7734C289.633 68.9609 290.125 70.5938 290.125 72.6719C290.125 73.8281 289.961 74.8594 289.633 75.7656C289.32 76.6562 288.898 77.3594 288.367 77.875C287.852 78.3906 287.289 78.7734 286.68 79.0234C286.086 79.2891 285.469 79.4219 284.828 79.4219C283.938 79.4219 283.148 79.1641 282.461 78.6484C281.773 78.1172 281.281 77.4844 280.984 76.75V79H279.203ZM280.938 72.6719C280.938 74.2656 281.289 75.5391 281.992 76.4922C282.711 77.4297 283.578 77.8984 284.594 77.8984C285.672 77.8984 286.555 77.4375 287.242 76.5156C287.945 75.5781 288.297 74.2969 288.297 72.6719C288.297 71.0938 287.953 69.8359 287.266 68.8984C286.578 67.9609 285.688 67.4922 284.594 67.4922C283.578 67.4922 282.711 67.9609 281.992 68.8984C281.289 69.8359 280.938 71.0938 280.938 72.6719ZM293.312 79V60.7891H295.094V79H293.312ZM298.984 74.5703V66.3906H300.812V74.1953C300.812 76.6641 301.719 77.8984 303.531 77.8984C304.641 77.8984 305.484 77.4688 306.062 76.6094C306.656 75.75 306.953 74.7344 306.953 73.5625V66.3906H308.734V79H307V76.9609C306.875 77.4766 306.484 78.0156 305.828 78.5781C305.188 79.1406 304.281 79.4219 303.109 79.4219C301.906 79.4219 300.914 79.0156 300.133 78.2031C299.367 77.375 298.984 76.1641 298.984 74.5703ZM311.664 72.6016C311.664 70.6328 312.195 69.0391 313.258 67.8203C314.32 66.5859 315.695 65.9688 317.383 65.9688C319.102 65.9688 320.453 66.5703 321.438 67.7734C322.422 68.9609 322.914 70.4844 322.914 72.3438C322.914 72.5625 322.898 72.875 322.867 73.2812H313.492C313.492 74.5469 313.844 75.6328 314.547 76.5391C315.25 77.4453 316.227 77.8984 317.477 77.8984C318.289 77.8984 319.008 77.7109 319.633 77.3359C320.258 76.9453 320.742 76.4297 321.086 75.7891L322.633 76.2578C322.242 77.1797 321.609 77.9375 320.734 78.5312C319.859 79.125 318.773 79.4219 317.477 79.4219C315.727 79.4219 314.32 78.7969 313.258 77.5469C312.195 76.2969 311.664 74.6484 311.664 72.6016ZM313.539 71.8984H321.086C321.086 70.6641 320.75 69.625 320.078 68.7812C319.406 67.9219 318.508 67.4922 317.383 67.4922C316.242 67.4922 315.32 67.9297 314.617 68.8047C313.93 69.6797 313.57 70.7109 313.539 71.8984ZM325.07 81.1094L326.992 74.2422H329.594L326.547 81.1094H325.07ZM326.547 67.75V64.9609H329.5V67.75H326.547ZM146.734 110.57H148.234C148.641 110.57 148.969 110.406 149.219 110.078C149.469 109.75 149.594 109.258 149.594 108.602V103.984C149.594 102.391 150.18 101.289 151.352 100.68C150.789 100.32 150.352 99.8828 150.039 99.3672C149.742 98.8359 149.594 98.0703 149.594 97.0703V92.4297C149.594 91.8516 149.469 91.4062 149.219 91.0938C148.984 90.7812 148.672 90.625 148.281 90.625H146.734V89.125H148.586C149.398 89.125 150.07 89.3984 150.602 89.9453C151.133 90.4766 151.398 91.2266 151.398 92.1953V96.7656C151.398 98.9062 151.977 99.9766 153.133 99.9766H153.789V101.383H153.133C152.617 101.383 152.195 101.641 151.867 102.156C151.555 102.672 151.398 103.383 151.398 104.289V109.023C151.398 110.039 151.125 110.797 150.578 111.297C150.047 111.797 149.383 112.047 148.586 112.047H146.734V110.57Z" fill="black"/>
<path d="M134.061 43.0607C134.646 42.4749 134.646 41.5251 134.061 40.9393L124.515 31.3934C123.929 30.8076 122.979 30.8076 122.393 31.3934C121.808 31.9792 121.808 32.9289 122.393 33.5147L130.879 42L122.393 50.4853C121.808 51.0711 121.808 52.0208 122.393 52.6066C122.979 53.1924 123.929 53.1924 124.515 52.6066L134.061 43.0607ZM101 43.5H133V40.5H101V43.5Z" fill="#0073C0"/>
<path d="M134.423 79.4743C134.685 78.6884 134.26 77.8389 133.474 77.577L120.667 73.3079C119.881 73.0459 119.032 73.4707 118.77 74.2566C118.508 75.0425 118.933 75.892 119.718 76.154L131.103 79.9487L127.308 91.3329C127.046 92.1188 127.471 92.9683 128.257 93.2303C129.042 93.4922 129.892 93.0675 130.154 92.2816L134.423 79.4743ZM101.671 96.3416L133.671 80.3416L132.329 77.6584L100.329 93.6584L101.671 96.3416Z" fill="#0073C0"/>
<path d="M270.061 88.9393C269.475 88.3536 268.525 88.3536 267.939 88.9393L258.393 98.4853C257.808 99.0711 257.808 100.021 258.393 100.607C258.979 101.192 259.929 101.192 260.515 100.607L269 92.1213L277.485 100.607C278.071 101.192 279.021 101.192 279.607 100.607C280.192 100.021 280.192 99.0711 279.607 98.4853L270.061 88.9393ZM270.5 115V90H267.5V115H270.5Z" fill="#0073C0"/>
<path d="M5.73047 106.371C5.28516 106.371 4.92188 106.318 4.64062 106.213C4.35938 106.119 4.14258 105.99 3.99023 105.826V117.533C3.99023 117.861 3.92578 118.125 3.79688 118.324C3.66797 118.535 3.50391 118.699 3.30469 118.816C3.11719 118.934 2.91211 119.01 2.68945 119.045C2.4668 119.092 2.26758 119.115 2.0918 119.115C1.72852 119.115 1.5 119.021 1.40625 118.834C1.3125 118.646 1.26562 118.418 1.26562 118.148V93.0117C1.26562 92.7539 1.24219 92.5488 1.19531 92.3965C1.16016 92.2441 1.11914 92.127 1.07227 92.0449C1.03711 91.9512 0.996094 91.8809 0.949219 91.834C0.914062 91.7754 0.896484 91.7109 0.896484 91.6406C0.896484 91.582 0.931641 91.5293 1.00195 91.4824C1.07227 91.4355 1.16602 91.3945 1.2832 91.3594C1.40039 91.3242 1.52344 91.3008 1.65234 91.2891C1.79297 91.2656 1.92773 91.2539 2.05664 91.2539C2.63086 91.2539 3.08789 91.4121 3.42773 91.7285C3.7793 92.0332 3.9668 92.3906 3.99023 92.8008C4.36523 92.25 4.81641 91.793 5.34375 91.4297C5.87109 91.0664 6.51562 90.8848 7.27734 90.8848C7.98047 90.8848 8.58984 91.0488 9.10547 91.377C9.63281 91.7051 10.0664 92.1562 10.4062 92.7305C10.7578 93.293 11.0156 93.9609 11.1797 94.7344C11.3555 95.5078 11.4434 96.3398 11.4434 97.2305C11.4434 98.2383 11.3555 99.2051 11.1797 100.131C11.0039 101.045 10.7812 101.83 10.5117 102.486C11.1094 102.451 11.6016 102.369 11.9883 102.24C12.375 102.111 12.6973 101.936 12.9551 101.713C13.2246 101.479 13.4531 101.197 13.6406 100.869C13.8398 100.541 14.0449 100.166 14.2559 99.7441C14.4199 99.4043 14.5547 99.1582 14.6602 99.0059C14.7773 98.8535 14.918 98.7773 15.082 98.7773C15.2344 98.7773 15.3867 98.8242 15.5391 98.918C15.7031 99.0117 15.8438 99.1289 15.9609 99.2695C16.0898 99.4102 16.1895 99.5625 16.2598 99.7266C16.3418 99.8789 16.3828 100.02 16.3828 100.148C16.3828 100.559 16.2422 101.027 15.9609 101.555C15.6797 102.082 15.2461 102.58 14.6602 103.049C14.0859 103.518 13.3535 103.916 12.4629 104.244C11.584 104.561 10.5469 104.719 9.35156 104.719C8.85938 105.246 8.29102 105.65 7.64648 105.932C7.00195 106.225 6.36328 106.371 5.73047 106.371ZM6.36328 93.293C6.10547 93.293 5.85352 93.3691 5.60742 93.5215C5.37305 93.6738 5.15039 93.8848 4.93945 94.1543C4.72852 94.4121 4.54102 94.7285 4.37695 95.1035C4.22461 95.4785 4.0957 95.8828 3.99023 96.3164V104.104C4.24805 103.729 4.66992 103.441 5.25586 103.242C5.8418 103.043 6.55078 102.908 7.38281 102.838C7.59375 102.521 7.77539 102.146 7.92773 101.713C8.0918 101.268 8.22656 100.811 8.33203 100.342C8.4375 99.873 8.51367 99.416 8.56055 98.9707C8.61914 98.5254 8.64844 98.1328 8.64844 97.793C8.64844 96.9727 8.58398 96.2754 8.45508 95.7012C8.33789 95.127 8.17383 94.6641 7.96289 94.3125C7.75195 93.9492 7.50586 93.6914 7.22461 93.5391C6.95508 93.375 6.66797 93.293 6.36328 93.293ZM22.1133 106.002C21.6914 106.002 21.2578 105.938 20.8125 105.809C20.3789 105.68 19.9805 105.457 19.6172 105.141C19.2656 104.824 18.9727 104.408 18.7383 103.893C18.5156 103.365 18.4043 102.703 18.4043 101.906C18.4043 100.746 18.5566 99.5215 18.8613 98.2324C19.1777 96.9316 19.6289 95.502 20.2148 93.9434H17.4727H17.0684C17.0566 94.2949 17.0332 94.7402 16.998 95.2793C16.9746 95.8184 16.9277 96.3926 16.8574 97.002C16.7871 97.6113 16.6934 98.2266 16.5762 98.8477C16.4707 99.4688 16.3359 100.043 16.1719 100.57C16.0547 100.945 15.8672 101.162 15.6094 101.221C15.3633 101.279 15.1172 101.238 14.8711 101.098C14.625 100.945 14.4258 100.729 14.2734 100.447C14.1211 100.166 14.0859 99.873 14.168 99.5684C14.2617 99.2051 14.3438 98.7656 14.4141 98.25C14.4844 97.7227 14.5371 97.1719 14.5723 96.5977C14.6191 96.0117 14.6543 95.4316 14.6777 94.8574C14.7012 94.2715 14.7188 93.75 14.7305 93.293C14.2852 93.0469 13.916 92.7363 13.623 92.3613C13.3301 91.9746 13.1836 91.5176 13.1836 90.9902C13.1836 90.7441 13.2305 90.5215 13.3242 90.3223C13.4297 90.1113 13.5645 89.9355 13.7285 89.7949C13.8926 89.6426 14.0859 89.5312 14.3086 89.4609C14.5312 89.3789 14.7598 89.3379 14.9941 89.3379C15.2051 89.3379 15.4219 89.3672 15.6445 89.4258C15.8789 89.4844 16.0957 89.5898 16.2949 89.7422C16.5059 89.8945 16.6934 90.0938 16.8574 90.3398C17.0215 90.5859 17.1562 90.8906 17.2617 91.2539C17.5547 91.2891 17.8008 91.3184 18 91.3418C18.2109 91.3535 18.3867 91.3652 18.5273 91.377C18.668 91.3887 18.7852 91.3945 18.8789 91.3945C18.9727 91.3945 19.0664 91.3945 19.1602 91.3945H21.041C21.1465 91.3945 21.2988 91.459 21.498 91.5879C21.709 91.7168 21.9141 91.8867 22.1133 92.0977C22.3125 92.2969 22.4766 92.5137 22.6055 92.748C22.7461 92.9824 22.7988 93.2051 22.7637 93.416C22.7637 93.4863 22.7227 93.6562 22.6406 93.9258C22.5586 94.1953 22.459 94.5352 22.3418 94.9453C22.2246 95.3555 22.0957 95.8301 21.9551 96.3691C21.8145 96.8965 21.6855 97.4531 21.5684 98.0391C21.4512 98.625 21.3516 99.2344 21.2695 99.8672C21.1875 100.488 21.1465 101.098 21.1465 101.695C21.1465 101.941 21.1758 102.182 21.2344 102.416C21.293 102.65 21.3809 102.861 21.498 103.049C21.6152 103.225 21.7617 103.365 21.9375 103.471C22.125 103.576 22.3418 103.629 22.5879 103.629C22.998 103.629 23.3496 103.5 23.6426 103.242C23.9355 102.984 24.1816 102.662 24.3809 102.275C24.5801 101.889 24.7383 101.473 24.8555 101.027C24.9844 100.57 25.0898 100.143 25.1719 99.7441C25.2422 99.3691 25.3594 99.0996 25.5234 98.9355C25.6875 98.7598 25.8574 98.6719 26.0332 98.6719C26.1738 98.6719 26.3203 98.7188 26.4727 98.8125C26.625 98.8945 26.7598 99.0059 26.877 99.1465C27.0059 99.2871 27.1055 99.4453 27.1758 99.6211C27.2578 99.7969 27.2988 99.9727 27.2988 100.148C27.2988 100.207 27.293 100.254 27.2812 100.289C27.2695 100.324 27.2637 100.359 27.2637 100.395C27.0996 100.992 26.8828 101.619 26.6133 102.275C26.3555 102.932 26.0215 103.535 25.6113 104.086C25.2012 104.637 24.709 105.094 24.1348 105.457C23.5605 105.82 22.8867 106.002 22.1133 106.002ZM38.5137 99.0586C38.5371 98.918 38.6133 98.8008 38.7422 98.707C38.8828 98.6133 39.041 98.5488 39.2168 98.5137C39.3926 98.4785 39.5742 98.4785 39.7617 98.5137C39.9609 98.5488 40.1309 98.6309 40.2715 98.7598C40.4238 98.877 40.5293 99.0469 40.5879 99.2695C40.6582 99.4805 40.6523 99.7559 40.5703 100.096C40.4648 100.588 40.2891 101.051 40.043 101.484C39.8086 101.906 39.5098 102.281 39.1465 102.609C38.7832 102.938 38.3555 103.195 37.8633 103.383C37.3711 103.57 36.8203 103.664 36.2109 103.664C35.8828 103.664 35.5723 103.646 35.2793 103.611C34.998 103.576 34.7227 103.512 34.4531 103.418C34.0078 104.191 33.4336 104.812 32.7305 105.281C32.0273 105.762 31.1602 106.002 30.1289 106.002C29.2148 106.002 28.4297 105.82 27.7734 105.457C27.1172 105.105 26.5723 104.625 26.1387 104.016C25.7051 103.395 25.3828 102.68 25.1719 101.871C24.9727 101.062 24.873 100.207 24.873 99.3047C24.873 97.9805 25.0254 96.7969 25.3301 95.7539C25.6465 94.6992 26.0098 93.8086 26.4199 93.082C26.8301 92.3438 27.2344 91.7812 27.6328 91.3945C28.043 91.0078 28.3477 90.8145 28.5469 90.8145C28.7812 90.8145 28.9922 90.9199 29.1797 91.1309C29.3789 91.3301 29.5195 91.5703 29.6016 91.8516C29.6953 92.1211 29.7188 92.3965 29.6719 92.6777C29.6367 92.959 29.502 93.1758 29.2676 93.3281C29.127 93.5508 28.957 93.8086 28.7578 94.1016C28.5703 94.3945 28.3887 94.7637 28.2129 95.209C28.0488 95.6426 27.9082 96.1758 27.791 96.8086C27.6738 97.4414 27.6152 98.2031 27.6152 99.0938C27.6152 99.8555 27.6797 100.518 27.8086 101.08C27.9492 101.643 28.1367 102.117 28.3711 102.504C28.6172 102.879 28.8926 103.16 29.1973 103.348C29.5137 103.535 29.8477 103.629 30.1992 103.629C30.7148 103.629 31.1367 103.506 31.4648 103.26C31.8047 103.002 32.0918 102.668 32.3262 102.258C31.4824 101.531 30.8379 100.611 30.3926 99.498C29.959 98.373 29.7422 97.1602 29.7422 95.8594C29.7422 95.2969 29.8008 94.7637 29.918 94.2598C30.0469 93.7441 30.2285 93.293 30.4629 92.9062C30.709 92.5195 31.0137 92.2148 31.377 91.9922C31.7402 91.7578 32.1621 91.6406 32.6426 91.6406C33.0645 91.6406 33.4629 91.793 33.8379 92.0977C34.2129 92.4023 34.541 92.8242 34.8223 93.3633C35.1035 93.9023 35.3203 94.541 35.4727 95.2793C35.6367 96.0176 35.7188 96.8203 35.7188 97.6875C35.7188 98.3555 35.6777 99.0176 35.5957 99.6738C35.5137 100.33 35.3848 100.963 35.209 101.572C35.3379 101.619 35.4551 101.648 35.5605 101.66C35.6777 101.66 35.8008 101.66 35.9297 101.66C36.3164 101.66 36.6562 101.59 36.9492 101.449C37.2539 101.309 37.5117 101.121 37.7227 100.887C37.9336 100.652 38.1035 100.377 38.2324 100.061C38.3613 99.7441 38.4551 99.4102 38.5137 99.0586ZM31.6406 95.7188C31.6406 96.5273 31.7637 97.2949 32.0098 98.0215C32.2676 98.748 32.6016 99.3809 33.0117 99.9199C33.082 99.3457 33.1172 98.7949 33.1172 98.2676C33.1172 97.6582 33.1055 97.0957 33.082 96.5801C33.0703 96.0527 33.0293 95.6016 32.959 95.2266C32.9004 94.8516 32.8125 94.5586 32.6953 94.3477C32.5898 94.125 32.4434 94.0137 32.2559 94.0137C31.8457 94.0137 31.6406 94.582 31.6406 95.7188ZM42.9961 106.371C42.5508 106.371 42.1875 106.318 41.9062 106.213C41.625 106.119 41.4082 105.99 41.2559 105.826V117.533C41.2559 117.861 41.1914 118.125 41.0625 118.324C40.9336 118.535 40.7695 118.699 40.5703 118.816C40.3828 118.934 40.1777 119.01 39.9551 119.045C39.7324 119.092 39.5332 119.115 39.3574 119.115C38.9941 119.115 38.7656 119.021 38.6719 118.834C38.5781 118.646 38.5312 118.418 38.5312 118.148V93.0117C38.5312 92.7539 38.5078 92.5488 38.4609 92.3965C38.4258 92.2441 38.3848 92.127 38.3379 92.0449C38.3027 91.9512 38.2617 91.8809 38.2148 91.834C38.1797 91.7754 38.1621 91.7109 38.1621 91.6406C38.1621 91.582 38.1973 91.5293 38.2676 91.4824C38.3379 91.4355 38.4316 91.3945 38.5488 91.3594C38.666 91.3242 38.7891 91.3008 38.918 91.2891C39.0586 91.2656 39.1934 91.2539 39.3223 91.2539C39.8965 91.2539 40.3535 91.4121 40.6934 91.7285C41.0449 92.0332 41.2324 92.3906 41.2559 92.8008C41.6309 92.25 42.082 91.793 42.6094 91.4297C43.1367 91.0664 43.7812 90.8848 44.543 90.8848C45.2461 90.8848 45.8555 91.0488 46.3711 91.377C46.8984 91.7051 47.332 92.1562 47.6719 92.7305C48.0234 93.293 48.2812 93.9609 48.4453 94.7344C48.6211 95.5078 48.709 96.3398 48.709 97.2305C48.709 98.2383 48.6211 99.2051 48.4453 100.131C48.2695 101.045 48.0469 101.83 47.7773 102.486C48.375 102.451 48.8672 102.369 49.2539 102.24C49.6406 102.111 49.9629 101.936 50.2207 101.713C50.4902 101.479 50.7188 101.197 50.9062 100.869C51.1055 100.541 51.3105 100.166 51.5215 99.7441C51.6855 99.4043 51.8203 99.1582 51.9258 99.0059C52.043 98.8535 52.1836 98.7773 52.3477 98.7773C52.5 98.7773 52.6523 98.8242 52.8047 98.918C52.9688 99.0117 53.1094 99.1289 53.2266 99.2695C53.3555 99.4102 53.4551 99.5625 53.5254 99.7266C53.6074 99.8789 53.6484 100.02 53.6484 100.148C53.6484 100.559 53.5078 101.027 53.2266 101.555C52.9453 102.082 52.5117 102.58 51.9258 103.049C51.3516 103.518 50.6191 103.916 49.7285 104.244C48.8496 104.561 47.8125 104.719 46.6172 104.719C46.125 105.246 45.5566 105.65 44.9121 105.932C44.2676 106.225 43.6289 106.371 42.9961 106.371ZM43.6289 93.293C43.3711 93.293 43.1191 93.3691 42.873 93.5215C42.6387 93.6738 42.416 93.8848 42.2051 94.1543C41.9941 94.4121 41.8066 94.7285 41.6426 95.1035C41.4902 95.4785 41.3613 95.8828 41.2559 96.3164V104.104C41.5137 103.729 41.9355 103.441 42.5215 103.242C43.1074 103.043 43.8164 102.908 44.6484 102.838C44.8594 102.521 45.041 102.146 45.1934 101.713C45.3574 101.268 45.4922 100.811 45.5977 100.342C45.7031 99.873 45.7793 99.416 45.8262 98.9707C45.8848 98.5254 45.9141 98.1328 45.9141 97.793C45.9141 96.9727 45.8496 96.2754 45.7207 95.7012C45.6035 95.127 45.4395 94.6641 45.2285 94.3125C45.0176 93.9492 44.7715 93.6914 44.4902 93.5391C44.2207 93.375 43.9336 93.293 43.6289 93.293ZM59.8184 94.5234C59.8184 95.1914 59.7012 95.877 59.4668 96.5801C59.2441 97.2832 58.9043 97.9512 58.4473 98.584C58.002 99.2051 57.4453 99.7676 56.7773 100.271C56.1211 100.764 55.3594 101.139 54.4922 101.396C54.6094 101.701 54.7617 101.994 54.9492 102.275C55.1484 102.545 55.3828 102.779 55.6523 102.979C55.9219 103.178 56.2324 103.336 56.584 103.453C56.9473 103.57 57.3633 103.629 57.832 103.629C58.5352 103.629 59.1387 103.5 59.6426 103.242C60.1465 102.973 60.5684 102.621 60.9082 102.188C61.2598 101.754 61.541 101.268 61.752 100.729C61.9629 100.189 62.1211 99.6445 62.2266 99.0938C62.3086 98.6953 62.4727 98.4316 62.7188 98.3027C62.9766 98.1621 63.2344 98.127 63.4922 98.1973C63.7617 98.2676 63.9902 98.4199 64.1777 98.6543C64.377 98.877 64.459 99.1465 64.4238 99.4629C64.377 99.8262 64.2949 100.242 64.1777 100.711C64.0723 101.18 63.9082 101.654 63.6855 102.135C63.4629 102.615 63.1758 103.09 62.8242 103.559C62.4844 104.016 62.0625 104.426 61.5586 104.789C61.0547 105.152 60.4629 105.445 59.7832 105.668C59.1035 105.891 58.3242 106.002 57.4453 106.002C56.625 106.002 55.8281 105.838 55.0547 105.51C54.293 105.193 53.6133 104.736 53.0156 104.139C52.4297 103.529 51.9551 102.785 51.5918 101.906C51.2402 101.016 51.0645 100.008 51.0645 98.8828C51.0645 97.7461 51.2227 96.6914 51.5391 95.7188C51.8555 94.7344 52.2715 93.8848 52.7871 93.1699C53.3027 92.4551 53.8887 91.8984 54.5449 91.5C55.2012 91.0898 55.875 90.8848 56.5664 90.8848C57.0703 90.8848 57.5215 90.9727 57.9199 91.1484C58.3301 91.3242 58.6758 91.5762 58.957 91.9043C59.2383 92.2207 59.4492 92.6016 59.5898 93.0469C59.7422 93.4922 59.8184 93.9844 59.8184 94.5234ZM54.0176 98.7773C54.0176 98.8828 54.0234 98.9883 54.0352 99.0938C54.0469 99.1992 54.0527 99.3105 54.0527 99.4277C54.498 99.2168 54.9023 98.9473 55.2656 98.6191C55.6289 98.291 55.9395 97.916 56.1973 97.4941C56.4551 97.0723 56.6543 96.6152 56.7949 96.123C56.9355 95.6191 57.0059 95.0977 57.0059 94.5586C57.0059 94.1602 56.9355 93.8496 56.7949 93.627C56.666 93.4043 56.4844 93.293 56.25 93.293C55.957 93.293 55.6934 93.3926 55.459 93.5918C55.2363 93.791 55.0371 94.0547 54.8613 94.3828C54.6973 94.6992 54.5566 95.0625 54.4395 95.4727C54.334 95.8711 54.2461 96.2754 54.1758 96.6855C54.1055 97.0957 54.0586 97.4883 54.0352 97.8633C54.0117 98.2266 54.0059 98.5312 54.0176 98.7773ZM70.0664 106.002C69.6445 106.002 69.2109 105.938 68.7656 105.809C68.332 105.68 67.9336 105.457 67.5703 105.141C67.2188 104.824 66.9258 104.408 66.6914 103.893C66.4688 103.365 66.3574 102.703 66.3574 101.906C66.3574 100.746 66.5098 99.5215 66.8145 98.2324C67.1309 96.9316 67.582 95.502 68.168 93.9434H65.4258H65.0215C65.0098 94.2949 64.9863 94.7402 64.9512 95.2793C64.9277 95.8184 64.8809 96.3926 64.8105 97.002C64.7402 97.6113 64.6465 98.2266 64.5293 98.8477C64.4238 99.4688 64.2891 100.043 64.125 100.57C64.0078 100.945 63.8203 101.162 63.5625 101.221C63.3164 101.279 63.0703 101.238 62.8242 101.098C62.5781 100.945 62.3789 100.729 62.2266 100.447C62.0742 100.166 62.0391 99.873 62.1211 99.5684C62.2148 99.2051 62.2969 98.7656 62.3672 98.25C62.4375 97.7227 62.4902 97.1719 62.5254 96.5977C62.5723 96.0117 62.6074 95.4316 62.6309 94.8574C62.6543 94.2715 62.6719 93.75 62.6836 93.293C62.2383 93.0469 61.8691 92.7363 61.5762 92.3613C61.2832 91.9746 61.1367 91.5176 61.1367 90.9902C61.1367 90.7441 61.1836 90.5215 61.2773 90.3223C61.3828 90.1113 61.5176 89.9355 61.6816 89.7949C61.8457 89.6426 62.0391 89.5312 62.2617 89.4609C62.4844 89.3789 62.7129 89.3379 62.9473 89.3379C63.1582 89.3379 63.375 89.3672 63.5977 89.4258C63.832 89.4844 64.0488 89.5898 64.248 89.7422C64.459 89.8945 64.6465 90.0938 64.8105 90.3398C64.9746 90.5859 65.1094 90.8906 65.2148 91.2539C65.5078 91.2891 65.7539 91.3184 65.9531 91.3418C66.1641 91.3535 66.3398 91.3652 66.4805 91.377C66.6211 91.3887 66.7383 91.3945 66.832 91.3945C66.9258 91.3945 67.0195 91.3945 67.1133 91.3945H68.9941C69.0996 91.3945 69.252 91.459 69.4512 91.5879C69.6621 91.7168 69.8672 91.8867 70.0664 92.0977C70.2656 92.2969 70.4297 92.5137 70.5586 92.748C70.6992 92.9824 70.752 93.2051 70.7168 93.416C70.7168 93.4863 70.6758 93.6562 70.5938 93.9258C70.5117 94.1953 70.4121 94.5352 70.2949 94.9453C70.1777 95.3555 70.0488 95.8301 69.9082 96.3691C69.7676 96.8965 69.6387 97.4531 69.5215 98.0391C69.4043 98.625 69.3047 99.2344 69.2227 99.8672C69.1406 100.488 69.0996 101.098 69.0996 101.695C69.0996 101.941 69.1289 102.182 69.1875 102.416C69.2461 102.65 69.334 102.861 69.4512 103.049C69.5684 103.225 69.7148 103.365 69.8906 103.471C70.0781 103.576 70.2949 103.629 70.541 103.629C70.9512 103.629 71.3027 103.5 71.5957 103.242C71.8887 102.984 72.1348 102.662 72.334 102.275C72.5332 101.889 72.6914 101.473 72.8086 101.027C72.9375 100.57 73.043 100.143 73.125 99.7441C73.1953 99.3691 73.3125 99.0996 73.4766 98.9355C73.6406 98.7598 73.8105 98.6719 73.9863 98.6719C74.127 98.6719 74.2734 98.7188 74.4258 98.8125C74.5781 98.8945 74.7129 99.0059 74.8301 99.1465C74.959 99.2871 75.0586 99.4453 75.1289 99.6211C75.2109 99.7969 75.252 99.9727 75.252 100.148C75.252 100.207 75.2461 100.254 75.2344 100.289C75.2227 100.324 75.2168 100.359 75.2168 100.395C75.0527 100.992 74.8359 101.619 74.5664 102.275C74.3086 102.932 73.9746 103.535 73.5645 104.086C73.1543 104.637 72.6621 105.094 72.0879 105.457C71.5137 105.82 70.8398 106.002 70.0664 106.002ZM70.0488 88.0723C70.3184 88.0957 70.6172 88.1133 70.9453 88.125C71.2266 88.1484 71.5664 88.166 71.9648 88.1777C72.3633 88.1777 72.8086 88.1836 73.3008 88.1953V82.0957C73.3008 81.8379 73.2773 81.6328 73.2305 81.4805C73.1953 81.3281 73.1543 81.2109 73.1074 81.1289C73.0723 81.0352 73.0312 80.9648 72.9844 80.918C72.9492 80.8594 72.9316 80.8008 72.9316 80.7422C72.9316 80.6719 72.9668 80.6133 73.0371 80.5664C73.1074 80.5195 73.2012 80.4785 73.3184 80.4434C73.4355 80.4082 73.5586 80.3848 73.6875 80.373C73.8281 80.3496 73.9629 80.3379 74.0918 80.3379C74.6895 80.3379 75.1582 80.4961 75.498 80.8125C75.8496 81.1172 76.0254 81.4863 76.0254 81.9199V88.2305C77.127 88.2305 78.2871 88.2188 79.5059 88.1953C80.7363 88.1719 81.9668 88.1309 83.1973 88.0723C83.3613 87.8965 83.4902 87.832 83.584 87.8789C83.6895 87.9258 83.7539 88.0371 83.7773 88.2129C83.8125 88.3887 83.8184 88.6055 83.7949 88.8633C83.7715 89.1211 83.7246 89.373 83.6543 89.6191C83.584 89.8535 83.4844 90.0586 83.3555 90.2344C83.2383 90.4102 83.1035 90.498 82.9512 90.498C81.5098 90.5332 80.2324 90.5566 79.1191 90.5684C78.0176 90.5684 76.9863 90.5684 76.0254 90.5684V101.977C76.0254 102.562 76.1367 102.984 76.3594 103.242C76.582 103.5 76.8809 103.629 77.2559 103.629C77.6191 103.629 77.9297 103.5 78.1875 103.242C78.457 102.984 78.6855 102.662 78.873 102.275C79.0723 101.889 79.2305 101.473 79.3477 101.027C79.4766 100.57 79.582 100.143 79.6641 99.7441C79.7344 99.3691 79.8516 99.0996 80.0156 98.9355C80.1797 98.7598 80.3496 98.6719 80.5254 98.6719C80.666 98.6719 80.8125 98.7188 80.9648 98.8125C81.1172 98.8945 81.252 99.0059 81.3691 99.1465C81.498 99.2871 81.5977 99.4453 81.668 99.6211C81.75 99.7969 81.791 99.9727 81.791 100.148C81.791 100.172 81.791 100.201 81.791 100.236C81.791 100.271 81.7793 100.324 81.7559 100.395C81.6035 100.992 81.3926 101.619 81.123 102.275C80.8652 102.932 80.5254 103.535 80.1035 104.086C79.6934 104.637 79.2012 105.094 78.627 105.457C78.0527 105.82 77.3789 106.002 76.6055 106.002C76.125 106.002 75.6797 105.926 75.2695 105.773C74.8711 105.633 74.5254 105.398 74.2324 105.07C73.9395 104.754 73.7109 104.344 73.5469 103.84C73.3828 103.336 73.3008 102.727 73.3008 102.012V90.5684C72.9023 90.5684 72.5449 90.5684 72.2285 90.5684C71.9238 90.5566 71.666 90.5449 71.4551 90.5332C71.209 90.5215 70.9922 90.5098 70.8047 90.498C70.5234 90.498 70.2773 90.375 70.0664 90.1289C69.8438 89.8711 69.6914 89.5898 69.6094 89.2852C69.5156 88.9805 69.5039 88.7051 69.5742 88.459C69.6328 88.2012 69.791 88.0723 70.0488 88.0723ZM92.6191 99.7441C92.7246 99.3691 92.8477 99.0996 92.9883 98.9355C93.1289 98.7598 93.293 98.6719 93.4805 98.6719C93.6211 98.6719 93.7676 98.7188 93.9199 98.8125C94.0723 98.8945 94.207 99.0059 94.3242 99.1465C94.4531 99.2871 94.5527 99.4453 94.623 99.6211C94.7051 99.7969 94.7461 99.9727 94.7461 100.148C94.7461 100.172 94.7461 100.219 94.7461 100.289C94.7461 100.359 94.7344 100.43 94.7109 100.5C94.4062 101.543 94.0488 102.469 93.6387 103.277C93.2402 104.074 92.8066 104.789 92.3379 105.422C91.8809 106.055 91.4062 106.617 90.9141 107.109C90.4219 107.613 89.9297 108.076 89.4375 108.498V114.721C89.4375 115.67 89.3262 116.467 89.1035 117.111C88.8926 117.768 88.6113 118.295 88.2598 118.693C87.9082 119.104 87.5098 119.396 87.0645 119.572C86.6191 119.748 86.168 119.836 85.7109 119.836C85.207 119.836 84.7441 119.725 84.3223 119.502C83.9004 119.291 83.5312 118.998 83.2148 118.623C82.9102 118.248 82.6699 117.809 82.4941 117.305C82.3301 116.801 82.248 116.262 82.248 115.688C82.248 114.773 82.3652 113.965 82.5996 113.262C82.8457 112.559 83.1738 111.914 83.584 111.328C83.9941 110.742 84.4688 110.191 85.0078 109.676C85.5469 109.172 86.1152 108.656 86.7129 108.129V103.559C86.2793 104.285 85.7754 104.877 85.2012 105.334C84.627 105.803 83.9531 106.037 83.1797 106.037C82.582 106.037 82.043 105.914 81.5625 105.668C81.0938 105.422 80.6953 105.076 80.3672 104.631C80.0391 104.174 79.7871 103.629 79.6113 102.996C79.4473 102.352 79.3652 101.637 79.3652 100.852C79.3652 99.9023 79.4297 98.9473 79.5586 97.9863C79.6992 97.0254 79.8516 96.1582 80.0156 95.3848C80.2031 94.4824 80.4199 93.6094 80.666 92.7656C80.7246 92.6133 80.7656 92.4609 80.7891 92.3086C80.8242 92.1445 80.8945 91.998 81 91.8691C81.1055 91.7402 81.2695 91.6348 81.4922 91.5527C81.7266 91.4707 82.084 91.4297 82.5645 91.4297C83.0098 91.4297 83.2969 91.5117 83.4258 91.6758C83.5547 91.8281 83.6016 92.0098 83.5664 92.2207C83.543 92.4316 83.4727 92.6484 83.3555 92.8711C83.25 93.0938 83.1797 93.2754 83.1445 93.416C82.9805 94.084 82.834 94.6934 82.7051 95.2441C82.5762 95.7949 82.4648 96.3516 82.3711 96.9141C82.2891 97.4648 82.2246 98.0449 82.1777 98.6543C82.1309 99.252 82.1074 99.9258 82.1074 100.676C82.1074 101.66 82.248 102.404 82.5293 102.908C82.8223 103.412 83.2324 103.664 83.7598 103.664C84.123 103.664 84.457 103.529 84.7617 103.26C85.0781 102.99 85.3594 102.633 85.6055 102.188C85.8633 101.73 86.0859 101.215 86.2734 100.641C86.4609 100.055 86.6074 99.4453 86.7129 98.8125V93.0117C86.7129 92.6719 86.6895 92.4258 86.6426 92.2734C86.5957 92.1211 86.5723 91.9805 86.5723 91.8516C86.5723 91.6758 86.6602 91.5352 86.8359 91.4297C87.0234 91.3125 87.2461 91.2539 87.5039 91.2539C88.1016 91.2539 88.5703 91.4121 88.9102 91.7285C89.2617 92.0332 89.4375 92.4023 89.4375 92.8359V105.475C90.0938 104.748 90.6973 103.922 91.248 102.996C91.7988 102.07 92.2559 100.986 92.6191 99.7441ZM85.7109 117.568C85.9922 117.568 86.2031 117.451 86.3438 117.217C86.4844 116.982 86.5781 116.707 86.625 116.391C86.6836 116.086 86.7129 115.775 86.7129 115.459C86.7129 115.143 86.7129 114.896 86.7129 114.721V110.871C86.127 111.457 85.6523 112.119 85.2891 112.857C84.9375 113.596 84.7617 114.504 84.7617 115.582C84.7617 116.145 84.8438 116.613 85.0078 116.988C85.1836 117.375 85.418 117.568 85.7109 117.568Z" fill="black"/>
<path d="M241.266 136.012C241.266 135.672 241.236 135.426 241.178 135.273C241.131 135.121 241.107 134.98 241.107 134.852C241.107 134.676 241.201 134.535 241.389 134.43C241.576 134.312 241.799 134.254 242.057 134.254C242.654 134.254 243.123 134.412 243.463 134.729C243.814 135.033 243.99 135.402 243.99 135.836V145.521C243.99 145.861 244.043 146.131 244.148 146.33C244.254 146.529 244.465 146.629 244.781 146.629C245.227 146.629 245.672 146.482 246.117 146.189C246.574 145.885 246.979 145.451 247.33 144.889C247.693 144.314 247.986 143.617 248.209 142.797C248.443 141.977 248.561 141.045 248.561 140.002C248.561 139.275 248.502 138.672 248.385 138.191C248.279 137.711 248.15 137.324 247.998 137.031C247.846 136.727 247.682 136.498 247.506 136.346C247.342 136.193 247.201 136.07 247.084 135.977C246.99 135.906 246.885 135.865 246.768 135.854C246.65 135.83 246.592 135.766 246.592 135.66C246.592 135.496 246.633 135.314 246.715 135.115C246.809 134.904 246.926 134.711 247.066 134.535C247.207 134.348 247.365 134.195 247.541 134.078C247.717 133.949 247.893 133.885 248.068 133.885C248.432 133.885 248.801 134.066 249.176 134.43C249.551 134.781 249.891 135.25 250.195 135.836C250.512 136.422 250.77 137.09 250.969 137.84C251.168 138.578 251.268 139.334 251.268 140.107C251.268 141.326 251.104 142.475 250.775 143.553C250.447 144.631 249.979 145.574 249.369 146.383C248.771 147.191 248.045 147.83 247.189 148.299C246.334 148.768 245.379 149.002 244.324 149.002C243.75 149.002 243.264 148.908 242.865 148.721C242.479 148.533 242.168 148.281 241.934 147.965C241.699 147.648 241.529 147.279 241.424 146.857C241.318 146.424 241.266 145.967 241.266 145.486V136.012ZM263.15 146.629C263.514 146.629 263.824 146.5 264.082 146.242C264.352 145.984 264.58 145.662 264.768 145.275C264.967 144.889 265.125 144.473 265.242 144.027C265.371 143.57 265.477 143.143 265.559 142.744C265.641 142.369 265.758 142.1 265.91 141.936C266.074 141.76 266.25 141.672 266.438 141.672C266.578 141.672 266.719 141.719 266.859 141.812C267.012 141.895 267.146 142.006 267.264 142.146C267.393 142.287 267.492 142.445 267.562 142.621C267.645 142.797 267.686 142.973 267.686 143.148C267.686 143.172 267.686 143.201 267.686 143.236C267.686 143.271 267.674 143.324 267.65 143.395C267.498 143.992 267.287 144.619 267.018 145.275C266.76 145.932 266.426 146.535 266.016 147.086C265.605 147.637 265.107 148.094 264.521 148.457C263.947 148.82 263.273 149.002 262.5 149.002C261.867 149.002 261.316 148.867 260.848 148.598C260.379 148.328 260.01 147.971 259.74 147.525C259.377 147.936 258.938 148.281 258.422 148.562C257.918 148.855 257.326 149.002 256.646 149.002C255.943 149.002 255.322 148.861 254.783 148.58C254.256 148.299 253.811 147.918 253.447 147.438C253.084 146.945 252.809 146.371 252.621 145.715C252.445 145.047 252.357 144.332 252.357 143.57C252.357 142.07 252.598 140.723 253.078 139.527C253.559 138.332 254.197 137.318 254.994 136.486C255.791 135.643 256.699 134.998 257.719 134.553C258.75 134.107 259.816 133.885 260.918 133.885C261.41 133.885 261.809 134.02 262.113 134.289C262.418 134.559 262.57 134.928 262.57 135.396C262.57 135.701 262.535 135.918 262.465 136.047C262.406 136.164 262.289 136.223 262.113 136.223C261.949 136.223 261.779 136.211 261.604 136.188C261.428 136.164 261.246 136.152 261.059 136.152C260.379 136.152 259.688 136.305 258.984 136.609C258.281 136.902 257.643 137.359 257.068 137.98C256.506 138.59 256.043 139.369 255.68 140.318C255.316 141.256 255.135 142.375 255.135 143.676C255.135 144.625 255.316 145.357 255.68 145.873C256.043 146.377 256.541 146.629 257.174 146.629C257.666 146.629 258.076 146.447 258.404 146.084C258.732 145.709 258.996 145.27 259.195 144.766V139.211C259.195 139.035 259.184 138.889 259.16 138.771C259.148 138.654 259.131 138.555 259.107 138.473C259.096 138.391 259.084 138.32 259.072 138.262C259.061 138.191 259.055 138.127 259.055 138.068C259.055 137.881 259.143 137.734 259.318 137.629C259.506 137.512 259.729 137.453 259.986 137.453C260.584 137.453 261.059 137.611 261.41 137.928C261.762 138.232 261.938 138.602 261.938 139.035V144.977C261.938 145.176 261.961 145.375 262.008 145.574C262.055 145.762 262.125 145.938 262.219 146.102C262.312 146.254 262.436 146.383 262.588 146.488C262.752 146.582 262.939 146.629 263.15 146.629ZM268.459 137.348C268.588 137.102 268.711 136.773 268.828 136.363C268.957 135.941 269.074 135.479 269.18 134.975C269.297 134.471 269.402 133.943 269.496 133.393C269.59 132.842 269.672 132.303 269.742 131.775C269.812 131.248 269.865 130.756 269.9 130.299C269.947 129.83 269.971 129.432 269.971 129.104C269.971 127.908 269.883 127.035 269.707 126.484C269.531 125.922 269.297 125.641 269.004 125.641C268.91 125.641 268.828 125.688 268.758 125.781C268.688 125.875 268.629 125.998 268.582 126.15C268.535 126.291 268.5 126.449 268.477 126.625C268.465 126.789 268.459 126.941 268.459 127.082V137.348ZM273.574 142.779C273.645 142.428 273.75 142.176 273.891 142.023C274.043 141.859 274.201 141.771 274.365 141.76C274.541 141.736 274.717 141.777 274.893 141.883C275.068 141.977 275.221 142.105 275.35 142.27C275.479 142.434 275.572 142.621 275.631 142.832C275.701 143.031 275.713 143.23 275.666 143.43C275.502 143.91 275.268 144.473 274.963 145.117C274.658 145.762 274.271 146.371 273.803 146.945C273.334 147.52 272.783 148.006 272.15 148.404C271.518 148.803 270.791 149.002 269.971 149.002C269.279 149.002 268.67 148.885 268.143 148.65C267.615 148.428 267.17 148.111 266.807 147.701C266.455 147.279 266.186 146.781 265.998 146.207C265.822 145.621 265.734 144.971 265.734 144.256V127.873C265.734 127.205 265.816 126.59 265.98 126.027C266.156 125.453 266.391 124.967 266.684 124.568C266.988 124.158 267.34 123.842 267.738 123.619C268.137 123.385 268.559 123.268 269.004 123.268C269.531 123.268 269.977 123.367 270.34 123.566C270.703 123.754 271.002 124.006 271.236 124.322C271.471 124.639 271.652 125.002 271.781 125.412C271.922 125.822 272.021 126.244 272.08 126.678C272.139 127.1 272.174 127.521 272.186 127.943C272.197 128.354 272.203 128.729 272.203 129.068C272.203 129.947 272.121 130.873 271.957 131.846C271.793 132.807 271.582 133.756 271.324 134.693C271.078 135.631 270.803 136.533 270.498 137.4C270.205 138.256 269.918 139.018 269.637 139.686C269.367 140.354 269.121 140.898 268.898 141.32C268.688 141.742 268.541 141.988 268.459 142.059V144.15C268.459 144.877 268.611 145.475 268.916 145.943C269.221 146.4 269.707 146.629 270.375 146.629C270.785 146.629 271.166 146.506 271.518 146.26C271.881 146.002 272.197 145.686 272.467 145.311C272.748 144.924 272.982 144.508 273.17 144.062C273.357 143.605 273.492 143.178 273.574 142.779ZM283.576 149.002C283.166 149.002 282.791 148.938 282.451 148.809C282.123 148.68 281.83 148.498 281.572 148.264C281.326 148.041 281.121 147.777 280.957 147.473C280.793 147.156 280.682 146.816 280.623 146.453C280.189 147.215 279.68 147.836 279.094 148.316C278.508 148.797 277.816 149.037 277.02 149.037C276.422 149.037 275.883 148.914 275.402 148.668C274.934 148.422 274.535 148.076 274.207 147.631C273.879 147.174 273.627 146.629 273.451 145.996C273.287 145.352 273.205 144.637 273.205 143.852C273.205 142.902 273.27 141.947 273.398 140.986C273.539 140.025 273.691 139.158 273.855 138.385C274.043 137.482 274.26 136.609 274.506 135.766C274.564 135.613 274.605 135.461 274.629 135.309C274.664 135.145 274.734 134.998 274.84 134.869C274.945 134.74 275.109 134.635 275.332 134.553C275.566 134.471 275.924 134.43 276.404 134.43C276.85 134.43 277.137 134.512 277.266 134.676C277.395 134.828 277.441 135.01 277.406 135.221C277.383 135.432 277.312 135.648 277.195 135.871C277.09 136.094 277.02 136.275 276.984 136.416C276.82 137.084 276.674 137.693 276.545 138.244C276.416 138.795 276.305 139.352 276.211 139.914C276.129 140.465 276.064 141.045 276.018 141.654C275.971 142.252 275.947 142.926 275.947 143.676C275.947 144.66 276.088 145.404 276.369 145.908C276.662 146.412 277.072 146.664 277.6 146.664C277.963 146.664 278.297 146.529 278.602 146.26C278.918 145.99 279.199 145.633 279.445 145.188C279.703 144.73 279.926 144.215 280.113 143.641C280.301 143.055 280.447 142.445 280.553 141.812V136.012C280.553 135.754 280.529 135.549 280.482 135.396C280.447 135.244 280.406 135.127 280.359 135.045C280.324 134.951 280.283 134.881 280.236 134.834C280.201 134.775 280.184 134.711 280.184 134.641C280.184 134.582 280.219 134.529 280.289 134.482C280.359 134.436 280.453 134.395 280.57 134.359C280.688 134.324 280.811 134.301 280.939 134.289C281.08 134.266 281.215 134.254 281.344 134.254C281.941 134.254 282.41 134.412 282.75 134.729C283.102 135.033 283.277 135.402 283.277 135.836V144.977C283.277 145.059 283.283 145.193 283.295 145.381C283.307 145.557 283.342 145.738 283.4 145.926C283.459 146.113 283.553 146.277 283.682 146.418C283.811 146.559 283.992 146.629 284.227 146.629C284.59 146.629 284.9 146.5 285.158 146.242C285.428 145.984 285.656 145.662 285.844 145.275C286.043 144.889 286.201 144.473 286.318 144.027C286.447 143.57 286.553 143.143 286.635 142.744C286.705 142.369 286.822 142.1 286.986 141.936C287.15 141.76 287.32 141.672 287.496 141.672C287.637 141.672 287.783 141.719 287.936 141.812C288.088 141.895 288.223 142.006 288.34 142.146C288.469 142.287 288.568 142.445 288.639 142.621C288.721 142.797 288.762 142.973 288.762 143.148C288.762 143.172 288.762 143.201 288.762 143.236C288.762 143.271 288.75 143.324 288.727 143.395C288.562 143.992 288.346 144.619 288.076 145.275C287.818 145.932 287.484 146.535 287.074 147.086C286.664 147.637 286.172 148.094 285.598 148.457C285.023 148.82 284.35 149.002 283.576 149.002ZM295.072 137.523C295.072 138.191 294.955 138.877 294.721 139.58C294.498 140.283 294.158 140.951 293.701 141.584C293.256 142.205 292.699 142.768 292.031 143.271C291.375 143.764 290.613 144.139 289.746 144.396C289.863 144.701 290.016 144.994 290.203 145.275C290.402 145.545 290.637 145.779 290.906 145.979C291.176 146.178 291.486 146.336 291.838 146.453C292.201 146.57 292.617 146.629 293.086 146.629C293.789 146.629 294.393 146.5 294.896 146.242C295.4 145.973 295.822 145.621 296.162 145.188C296.514 144.754 296.795 144.268 297.006 143.729C297.217 143.189 297.375 142.645 297.48 142.094C297.562 141.695 297.727 141.432 297.973 141.303C298.23 141.162 298.488 141.127 298.746 141.197C299.016 141.268 299.244 141.42 299.432 141.654C299.631 141.877 299.713 142.146 299.678 142.463C299.631 142.826 299.549 143.242 299.432 143.711C299.326 144.18 299.162 144.654 298.939 145.135C298.717 145.615 298.43 146.09 298.078 146.559C297.738 147.016 297.316 147.426 296.812 147.789C296.309 148.152 295.717 148.445 295.037 148.668C294.357 148.891 293.578 149.002 292.699 149.002C291.879 149.002 291.082 148.838 290.309 148.51C289.547 148.193 288.867 147.736 288.27 147.139C287.684 146.529 287.209 145.785 286.846 144.906C286.494 144.016 286.318 143.008 286.318 141.883C286.318 140.746 286.477 139.691 286.793 138.719C287.109 137.734 287.525 136.885 288.041 136.17C288.557 135.455 289.143 134.898 289.799 134.5C290.455 134.09 291.129 133.885 291.82 133.885C292.324 133.885 292.775 133.973 293.174 134.148C293.584 134.324 293.93 134.576 294.211 134.904C294.492 135.221 294.703 135.602 294.844 136.047C294.996 136.492 295.072 136.984 295.072 137.523ZM289.271 141.777C289.271 141.883 289.277 141.988 289.289 142.094C289.301 142.199 289.307 142.311 289.307 142.428C289.752 142.217 290.156 141.947 290.52 141.619C290.883 141.291 291.193 140.916 291.451 140.494C291.709 140.072 291.908 139.615 292.049 139.123C292.189 138.619 292.26 138.098 292.26 137.559C292.26 137.16 292.189 136.85 292.049 136.627C291.92 136.404 291.738 136.293 291.504 136.293C291.211 136.293 290.947 136.393 290.713 136.592C290.49 136.791 290.291 137.055 290.115 137.383C289.951 137.699 289.811 138.062 289.693 138.473C289.588 138.871 289.5 139.275 289.43 139.686C289.359 140.096 289.312 140.488 289.289 140.863C289.266 141.227 289.26 141.531 289.271 141.777Z" fill="black"/>
<path d="M12.3047 47.0605C12.2109 47.4355 12.0352 47.6699 11.7773 47.7637C11.5195 47.8457 11.2617 47.834 11.0039 47.7285C10.7578 47.623 10.5469 47.4414 10.3711 47.1836C10.207 46.9258 10.1602 46.6445 10.2305 46.3398C10.4062 45.543 10.6582 44.6641 10.9863 43.7031C11.3262 42.7305 11.6602 41.7637 11.9883 40.8027C11.8125 40.5332 11.6719 40.2637 11.5664 39.9941C11.4609 39.7129 11.4082 39.4199 11.4082 39.1152C11.4082 38.8105 11.5195 38.4941 11.7422 38.166C11.9766 37.8262 12.252 37.5156 12.5684 37.2344C12.8965 36.9531 13.2305 36.7246 13.5703 36.5488C13.9219 36.3613 14.2207 36.2676 14.4668 36.2676C14.9004 36.2676 15.2227 36.4141 15.4336 36.707C15.6562 37 15.7676 37.3926 15.7676 37.8848C15.7676 38.1543 15.7207 38.4238 15.627 38.6934C15.5449 38.9512 15.4512 39.1973 15.3457 39.4316C15.2402 39.6543 15.1406 39.8477 15.0469 40.0117C14.9648 40.1758 14.918 40.2812 14.9062 40.3281C15.3281 41.0781 15.7676 41.7402 16.2246 42.3145C16.6816 42.8887 17.0977 43.457 17.4727 44.0195C17.8594 44.582 18.1758 45.1797 18.4219 45.8125C18.668 46.4453 18.791 47.1895 18.791 48.0449C18.791 48.2559 18.7734 48.4727 18.7383 48.6953C18.7148 48.918 18.6738 49.1289 18.6152 49.3281C19.0371 49.2461 19.4062 49.1172 19.7227 48.9414C20.0508 48.7656 20.332 48.5664 20.5664 48.3438C20.8125 48.1094 21.0117 47.8574 21.1641 47.5879C21.3281 47.3184 21.4629 47.0371 21.5684 46.7441C21.6973 46.4043 21.8262 46.1582 21.9551 46.0059C22.084 45.8535 22.2305 45.7773 22.3945 45.7773C22.5469 45.7773 22.6992 45.8301 22.8516 45.9355C23.0156 46.0293 23.1562 46.1523 23.2734 46.3047C23.4023 46.457 23.502 46.6152 23.5723 46.7793C23.6543 46.9434 23.6953 47.0898 23.6953 47.2188C23.6953 47.3945 23.6484 47.6055 23.5547 47.8516C23.4609 48.0977 23.332 48.3496 23.168 48.6074C23.0156 48.8652 22.8398 49.1172 22.6406 49.3633C22.4414 49.5977 22.2363 49.8027 22.0254 49.9785C21.4629 50.4355 20.8008 50.8223 20.0391 51.1387C19.2773 51.4434 18.334 51.6367 17.209 51.7188C16.7754 52.0938 16.2598 52.3984 15.6621 52.6328C15.0762 52.8789 14.4141 53.002 13.6758 53.002C13.3008 53.002 12.9141 52.9551 12.5156 52.8613C12.1289 52.7676 11.7539 52.6445 11.3906 52.4922C11.0391 52.3516 10.7168 52.1934 10.4238 52.0176C10.1309 51.8418 9.89648 51.666 9.7207 51.4902C9.27539 51.0684 8.98828 50.6465 8.85938 50.2246C8.73047 49.791 8.70117 49.4043 8.77148 49.0645C8.83008 48.7246 8.95312 48.4492 9.14062 48.2383C9.32812 48.0156 9.52148 47.9043 9.7207 47.9043C9.83789 47.9043 10.0195 47.957 10.2656 48.0625C10.5234 48.1562 10.8164 48.2852 11.1445 48.4492C11.4727 48.6016 11.8301 48.7656 12.2168 48.9414C12.6035 49.1172 12.9902 49.2871 13.377 49.4512C13.7637 49.6035 14.1387 49.7324 14.502 49.8379C14.877 49.9316 15.2168 49.9785 15.5215 49.9785C15.7207 49.7441 15.9023 49.4336 16.0664 49.0469C16.2305 48.6602 16.3125 48.2383 16.3125 47.7812C16.3125 47.2188 16.2363 46.6973 16.084 46.2168C15.9316 45.7363 15.7324 45.291 15.4863 44.8809C15.2402 44.4707 14.959 44.0898 14.6426 43.7383C14.3379 43.375 14.0273 43.0352 13.7109 42.7188C13.4297 43.4102 13.1836 44.0957 12.9727 44.7754C12.7617 45.4434 12.5391 46.2051 12.3047 47.0605ZM30.041 41.5234C30.041 42.1914 29.9238 42.877 29.6895 43.5801C29.4668 44.2832 29.127 44.9512 28.6699 45.584C28.2246 46.2051 27.668 46.7676 27 47.2715C26.3438 47.7637 25.582 48.1387 24.7148 48.3965C24.832 48.7012 24.9844 48.9941 25.1719 49.2754C25.3711 49.5449 25.6055 49.7793 25.875 49.9785C26.1445 50.1777 26.4551 50.3359 26.8066 50.4531C27.1699 50.5703 27.5859 50.6289 28.0547 50.6289C28.7578 50.6289 29.3613 50.5 29.8652 50.2422C30.3691 49.9727 30.791 49.6211 31.1309 49.1875C31.4824 48.7539 31.7637 48.2676 31.9746 47.7285C32.1855 47.1895 32.3438 46.6445 32.4492 46.0938C32.5312 45.6953 32.6953 45.4316 32.9414 45.3027C33.1992 45.1621 33.457 45.127 33.7148 45.1973C33.9844 45.2676 34.2129 45.4199 34.4004 45.6543C34.5996 45.877 34.6816 46.1465 34.6465 46.4629C34.5996 46.8262 34.5176 47.2422 34.4004 47.7109C34.2949 48.1797 34.1309 48.6543 33.9082 49.1348C33.6855 49.6152 33.3984 50.0898 33.0469 50.5586C32.707 51.0156 32.2852 51.4258 31.7812 51.7891C31.2773 52.1523 30.6855 52.4453 30.0059 52.668C29.3262 52.8906 28.5469 53.002 27.668 53.002C26.8477 53.002 26.0508 52.8379 25.2773 52.5098C24.5156 52.1934 23.8359 51.7363 23.2383 51.1387C22.6523 50.5293 22.1777 49.7852 21.8145 48.9062C21.4629 48.0156 21.2871 47.0078 21.2871 45.8828C21.2871 44.7461 21.4453 43.6914 21.7617 42.7188C22.0781 41.7344 22.4941 40.8848 23.0098 40.1699C23.5254 39.4551 24.1113 38.8984 24.7676 38.5C25.4238 38.0898 26.0977 37.8848 26.7891 37.8848C27.293 37.8848 27.7441 37.9727 28.1426 38.1484C28.5527 38.3242 28.8984 38.5762 29.1797 38.9043C29.4609 39.2207 29.6719 39.6016 29.8125 40.0469C29.9648 40.4922 30.041 40.9844 30.041 41.5234ZM24.2402 45.7773C24.2402 45.8828 24.2461 45.9883 24.2578 46.0938C24.2695 46.1992 24.2754 46.3105 24.2754 46.4277C24.7207 46.2168 25.125 45.9473 25.4883 45.6191C25.8516 45.291 26.1621 44.916 26.4199 44.4941C26.6777 44.0723 26.877 43.6152 27.0176 43.123C27.1582 42.6191 27.2285 42.0977 27.2285 41.5586C27.2285 41.1602 27.1582 40.8496 27.0176 40.627C26.8887 40.4043 26.707 40.293 26.4727 40.293C26.1797 40.293 25.916 40.3926 25.6816 40.5918C25.459 40.791 25.2598 41.0547 25.084 41.3828C24.9199 41.6992 24.7793 42.0625 24.6621 42.4727C24.5566 42.8711 24.4688 43.2754 24.3984 43.6855C24.3281 44.0957 24.2812 44.4883 24.2578 44.8633C24.2344 45.2266 24.2285 45.5312 24.2402 45.7773ZM35.1738 41.3477C35.3027 41.1016 35.4258 40.7734 35.543 40.3633C35.6719 39.9414 35.7891 39.4785 35.8945 38.9746C36.0117 38.4707 36.1172 37.9434 36.2109 37.3926C36.3047 36.8418 36.3867 36.3027 36.457 35.7754C36.5273 35.248 36.5801 34.7559 36.6152 34.2988C36.6621 33.8301 36.6855 33.4316 36.6855 33.1035C36.6855 31.9082 36.5977 31.0352 36.4219 30.4844C36.2461 29.9219 36.0117 29.6406 35.7188 29.6406C35.625 29.6406 35.543 29.6875 35.4727 29.7812C35.4023 29.875 35.3438 29.998 35.2969 30.1504C35.25 30.291 35.2148 30.4492 35.1914 30.625C35.1797 30.7891 35.1738 30.9414 35.1738 31.082V41.3477ZM40.2891 46.7793C40.3594 46.4277 40.4648 46.1758 40.6055 46.0234C40.7578 45.8594 40.916 45.7715 41.0801 45.7598C41.2559 45.7363 41.4316 45.7773 41.6074 45.8828C41.7832 45.9766 41.9355 46.1055 42.0645 46.2695C42.1934 46.4336 42.2871 46.6211 42.3457 46.832C42.416 47.0312 42.4277 47.2305 42.3809 47.4297C42.2168 47.9102 41.9824 48.4727 41.6777 49.1172C41.373 49.7617 40.9863 50.3711 40.5176 50.9453C40.0488 51.5195 39.498 52.0059 38.8652 52.4043C38.2324 52.8027 37.5059 53.002 36.6855 53.002C35.9941 53.002 35.3848 52.8848 34.8574 52.6504C34.3301 52.4277 33.8848 52.1113 33.5215 51.7012C33.1699 51.2793 32.9004 50.7812 32.7129 50.207C32.5371 49.6211 32.4492 48.9707 32.4492 48.2559V31.873C32.4492 31.2051 32.5312 30.5898 32.6953 30.0273C32.8711 29.4531 33.1055 28.9668 33.3984 28.5684C33.7031 28.1582 34.0547 27.8418 34.4531 27.6191C34.8516 27.3848 35.2734 27.2676 35.7188 27.2676C36.2461 27.2676 36.6914 27.3672 37.0547 27.5664C37.418 27.7539 37.7168 28.0059 37.9512 28.3223C38.1855 28.6387 38.3672 29.002 38.4961 29.4121C38.6367 29.8223 38.7363 30.2441 38.7949 30.6777C38.8535 31.0996 38.8887 31.5215 38.9004 31.9434C38.9121 32.3535 38.918 32.7285 38.918 33.0684C38.918 33.9473 38.8359 34.873 38.6719 35.8457C38.5078 36.8066 38.2969 37.7559 38.0391 38.6934C37.793 39.6309 37.5176 40.5332 37.2129 41.4004C36.9199 42.2559 36.6328 43.0176 36.3516 43.6855C36.082 44.3535 35.8359 44.8984 35.6133 45.3203C35.4023 45.7422 35.2559 45.9883 35.1738 46.0586V48.1504C35.1738 48.877 35.3262 49.4746 35.6309 49.9434C35.9355 50.4004 36.4219 50.6289 37.0898 50.6289C37.5 50.6289 37.8809 50.5059 38.2324 50.2598C38.5957 50.002 38.9121 49.6855 39.1816 49.3105C39.4629 48.9238 39.6973 48.5078 39.8848 48.0625C40.0723 47.6055 40.207 47.1777 40.2891 46.7793ZM48.6738 41.5234C48.6738 42.1914 48.5566 42.877 48.3223 43.5801C48.0996 44.2832 47.7598 44.9512 47.3027 45.584C46.8574 46.2051 46.3008 46.7676 45.6328 47.2715C44.9766 47.7637 44.2148 48.1387 43.3477 48.3965C43.4648 48.7012 43.6172 48.9941 43.8047 49.2754C44.0039 49.5449 44.2383 49.7793 44.5078 49.9785C44.7773 50.1777 45.0879 50.3359 45.4395 50.4531C45.8027 50.5703 46.2188 50.6289 46.6875 50.6289C47.3906 50.6289 47.9941 50.5 48.498 50.2422C49.002 49.9727 49.4238 49.6211 49.7637 49.1875C50.1152 48.7539 50.3965 48.2676 50.6074 47.7285C50.8184 47.1895 50.9766 46.6445 51.082 46.0938C51.1641 45.6953 51.3281 45.4316 51.5742 45.3027C51.832 45.1621 52.0898 45.127 52.3477 45.1973C52.6172 45.2676 52.8457 45.4199 53.0332 45.6543C53.2324 45.877 53.3145 46.1465 53.2793 46.4629C53.2324 46.8262 53.1504 47.2422 53.0332 47.7109C52.9277 48.1797 52.7637 48.6543 52.541 49.1348C52.3184 49.6152 52.0312 50.0898 51.6797 50.5586C51.3398 51.0156 50.918 51.4258 50.4141 51.7891C49.9102 52.1523 49.3184 52.4453 48.6387 52.668C47.959 52.8906 47.1797 53.002 46.3008 53.002C45.4805 53.002 44.6836 52.8379 43.9102 52.5098C43.1484 52.1934 42.4688 51.7363 41.8711 51.1387C41.2852 50.5293 40.8105 49.7852 40.4473 48.9062C40.0957 48.0156 39.9199 47.0078 39.9199 45.8828C39.9199 44.7461 40.0781 43.6914 40.3945 42.7188C40.7109 41.7344 41.127 40.8848 41.6426 40.1699C42.1582 39.4551 42.7441 38.8984 43.4004 38.5C44.0566 38.0898 44.7305 37.8848 45.4219 37.8848C45.9258 37.8848 46.377 37.9727 46.7754 38.1484C47.1855 38.3242 47.5312 38.5762 47.8125 38.9043C48.0938 39.2207 48.3047 39.6016 48.4453 40.0469C48.5977 40.4922 48.6738 40.9844 48.6738 41.5234ZM42.873 45.7773C42.873 45.8828 42.8789 45.9883 42.8906 46.0938C42.9023 46.1992 42.9082 46.3105 42.9082 46.4277C43.3535 46.2168 43.7578 45.9473 44.1211 45.6191C44.4844 45.291 44.7949 44.916 45.0527 44.4941C45.3105 44.0723 45.5098 43.6152 45.6504 43.123C45.791 42.6191 45.8613 42.0977 45.8613 41.5586C45.8613 41.1602 45.791 40.8496 45.6504 40.627C45.5215 40.4043 45.3398 40.293 45.1055 40.293C44.8125 40.293 44.5488 40.3926 44.3145 40.5918C44.0918 40.791 43.8926 41.0547 43.7168 41.3828C43.5527 41.6992 43.4121 42.0625 43.2949 42.4727C43.1895 42.8711 43.1016 43.2754 43.0312 43.6855C42.9609 44.0957 42.9141 44.4883 42.8906 44.8633C42.8672 45.2266 42.8613 45.5312 42.873 45.7773ZM56.8301 53.002C56.0332 53.002 55.2598 52.8555 54.5098 52.5625C53.7598 52.2695 53.0918 51.8359 52.5059 51.2617C51.9316 50.6875 51.4688 49.9785 51.1172 49.1348C50.7773 48.291 50.6074 47.3125 50.6074 46.1992C50.6074 45.168 50.7539 44.1543 51.0469 43.1582C51.3398 42.1621 51.7441 41.2773 52.2598 40.5039C52.7754 39.7188 53.3906 39.0859 54.1055 38.6055C54.832 38.125 55.623 37.8848 56.4785 37.8848C57.0996 37.8848 57.627 38.0137 58.0605 38.2715C58.4941 38.5176 58.8457 38.8223 59.1152 39.1855C59.3848 39.5371 59.5781 39.918 59.6953 40.3281C59.8242 40.7383 59.8887 41.1016 59.8887 41.418C59.8887 41.6523 59.8242 41.8633 59.6953 42.0508C59.5781 42.2383 59.4316 42.3965 59.2559 42.5254C59.0801 42.6543 58.8867 42.7539 58.6758 42.8242C58.4648 42.8828 58.2773 42.9062 58.1133 42.8945C57.9492 42.8828 57.8145 42.8242 57.709 42.7188C57.6152 42.6133 57.5859 42.4551 57.6211 42.2441C57.5742 42.0918 57.5273 41.9043 57.4805 41.6816C57.4453 41.459 57.375 41.248 57.2695 41.0488C57.1758 40.8379 57.041 40.6621 56.8652 40.5215C56.6895 40.3691 56.4492 40.293 56.1445 40.293C55.8164 40.293 55.4941 40.4512 55.1777 40.7676C54.873 41.0723 54.5977 41.4941 54.3516 42.0332C54.1172 42.5723 53.9238 43.1992 53.7715 43.9141C53.6309 44.6289 53.5605 45.3906 53.5605 46.1992C53.5605 46.9141 53.6484 47.5469 53.8242 48.0977C54.0117 48.6484 54.2695 49.1113 54.5977 49.4863C54.9258 49.8613 55.3125 50.1484 55.7578 50.3477C56.2148 50.5352 56.707 50.6289 57.2344 50.6289C57.9375 50.6289 58.5469 50.5 59.0625 50.2422C59.5898 49.9727 60.0352 49.6211 60.3984 49.1875C60.7617 48.7539 61.0547 48.2676 61.2773 47.7285C61.5 47.1895 61.6641 46.6445 61.7695 46.0938C61.8516 45.6953 62.0156 45.4316 62.2617 45.3027C62.5195 45.1621 62.7773 45.127 63.0352 45.1973C63.3047 45.2676 63.5332 45.4199 63.7207 45.6543C63.9199 45.877 64.002 46.1465 63.9668 46.4629C63.9199 46.8262 63.832 47.2422 63.7031 47.7109C63.5859 48.1797 63.4102 48.6543 63.1758 49.1348C62.9414 49.6152 62.6426 50.0898 62.2793 50.5586C61.9277 51.0156 61.4941 51.4258 60.9785 51.7891C60.4629 52.1523 59.8594 52.4453 59.168 52.668C58.4883 52.8906 57.709 53.002 56.8301 53.002ZM58.5176 35.0723C58.7871 35.0957 59.0859 35.1133 59.4141 35.125C59.6953 35.1484 60.0352 35.166 60.4336 35.1777C60.832 35.1777 61.2773 35.1836 61.7695 35.1953V29.0957C61.7695 28.8379 61.7461 28.6328 61.6992 28.4805C61.6641 28.3281 61.623 28.2109 61.5762 28.1289C61.541 28.0352 61.5 27.9648 61.4531 27.918C61.418 27.8594 61.4004 27.8008 61.4004 27.7422C61.4004 27.6719 61.4355 27.6133 61.5059 27.5664C61.5762 27.5195 61.6699 27.4785 61.7871 27.4434C61.9043 27.4082 62.0273 27.3848 62.1562 27.373C62.2969 27.3496 62.4316 27.3379 62.5605 27.3379C63.1582 27.3379 63.627 27.4961 63.9668 27.8125C64.3184 28.1172 64.4941 28.4863 64.4941 28.9199V35.2305C65.5957 35.2305 66.7559 35.2188 67.9746 35.1953C69.2051 35.1719 70.4355 35.1309 71.666 35.0723C71.8301 34.8965 71.959 34.832 72.0527 34.8789C72.1582 34.9258 72.2227 35.0371 72.2461 35.2129C72.2812 35.3887 72.2871 35.6055 72.2637 35.8633C72.2402 36.1211 72.1934 36.373 72.123 36.6191C72.0527 36.8535 71.9531 37.0586 71.8242 37.2344C71.707 37.4102 71.5723 37.498 71.4199 37.498C69.9785 37.5332 68.7012 37.5566 67.5879 37.5684C66.4863 37.5684 65.4551 37.5684 64.4941 37.5684V48.9766C64.4941 49.5625 64.6055 49.9844 64.8281 50.2422C65.0508 50.5 65.3496 50.6289 65.7246 50.6289C66.0879 50.6289 66.3984 50.5 66.6562 50.2422C66.9258 49.9844 67.1543 49.6621 67.3418 49.2754C67.541 48.8887 67.6992 48.4727 67.8164 48.0273C67.9453 47.5703 68.0508 47.1426 68.1328 46.7441C68.2031 46.3691 68.3203 46.0996 68.4844 45.9355C68.6484 45.7598 68.8184 45.6719 68.9941 45.6719C69.1348 45.6719 69.2812 45.7188 69.4336 45.8125C69.5859 45.8945 69.7207 46.0059 69.8379 46.1465C69.9668 46.2871 70.0664 46.4453 70.1367 46.6211C70.2188 46.7969 70.2598 46.9727 70.2598 47.1484C70.2598 47.1719 70.2598 47.2012 70.2598 47.2363C70.2598 47.2715 70.248 47.3242 70.2246 47.3945C70.0723 47.9922 69.8613 48.6191 69.5918 49.2754C69.334 49.9316 68.9941 50.5352 68.5723 51.0859C68.1621 51.6367 67.6699 52.0938 67.0957 52.457C66.5215 52.8203 65.8477 53.002 65.0742 53.002C64.5938 53.002 64.1484 52.9258 63.7383 52.7734C63.3398 52.6328 62.9941 52.3984 62.7012 52.0703C62.4082 51.7539 62.1797 51.3438 62.0156 50.8398C61.8516 50.3359 61.7695 49.7266 61.7695 49.0117V37.5684C61.3711 37.5684 61.0137 37.5684 60.6973 37.5684C60.3926 37.5566 60.1348 37.5449 59.9238 37.5332C59.6777 37.5215 59.4609 37.5098 59.2734 37.498C58.9922 37.498 58.7461 37.375 58.5352 37.1289C58.3125 36.8711 58.1602 36.5898 58.0781 36.2852C57.9844 35.9805 57.9727 35.7051 58.043 35.459C58.1016 35.2012 58.2598 35.0723 58.5176 35.0723ZM81.4746 46.0586C81.498 45.918 81.5742 45.8008 81.7031 45.707C81.8438 45.6133 82.002 45.5488 82.1777 45.5137C82.3535 45.4785 82.5352 45.4785 82.7227 45.5137C82.9219 45.5488 83.0918 45.6309 83.2324 45.7598C83.3848 45.877 83.4902 46.0469 83.5488 46.2695C83.6191 46.4805 83.6133 46.7559 83.5312 47.0957C83.4258 47.5879 83.25 48.0508 83.0039 48.4844C82.7695 48.9062 82.4707 49.2812 82.1074 49.6094C81.7441 49.9375 81.3164 50.1953 80.8242 50.3828C80.332 50.5703 79.7812 50.6641 79.1719 50.6641C78.8438 50.6641 78.5332 50.6465 78.2402 50.6113C77.959 50.5762 77.6836 50.5117 77.4141 50.418C76.9688 51.1914 76.3945 51.8125 75.6914 52.2812C74.9883 52.7617 74.1211 53.002 73.0898 53.002C72.1758 53.002 71.3906 52.8203 70.7344 52.457C70.0781 52.1055 69.5332 51.625 69.0996 51.0156C68.666 50.3945 68.3438 49.6797 68.1328 48.8711C67.9336 48.0625 67.834 47.207 67.834 46.3047C67.834 44.9805 67.9863 43.7969 68.291 42.7539C68.6074 41.6992 68.9707 40.8086 69.3809 40.082C69.791 39.3438 70.1953 38.7812 70.5938 38.3945C71.0039 38.0078 71.3086 37.8145 71.5078 37.8145C71.7422 37.8145 71.9531 37.9199 72.1406 38.1309C72.3398 38.3301 72.4805 38.5703 72.5625 38.8516C72.6562 39.1211 72.6797 39.3965 72.6328 39.6777C72.5977 39.959 72.4629 40.1758 72.2285 40.3281C72.0879 40.5508 71.918 40.8086 71.7188 41.1016C71.5312 41.3945 71.3496 41.7637 71.1738 42.209C71.0098 42.6426 70.8691 43.1758 70.752 43.8086C70.6348 44.4414 70.5762 45.2031 70.5762 46.0938C70.5762 46.8555 70.6406 47.5176 70.7695 48.0801C70.9102 48.6426 71.0977 49.1172 71.332 49.5039C71.5781 49.8789 71.8535 50.1602 72.1582 50.3477C72.4746 50.5352 72.8086 50.6289 73.1602 50.6289C73.6758 50.6289 74.0977 50.5059 74.4258 50.2598C74.7656 50.002 75.0527 49.668 75.2871 49.2578C74.4434 48.5312 73.7988 47.6113 73.3535 46.498C72.9199 45.373 72.7031 44.1602 72.7031 42.8594C72.7031 42.2969 72.7617 41.7637 72.8789 41.2598C73.0078 40.7441 73.1895 40.293 73.4238 39.9062C73.6699 39.5195 73.9746 39.2148 74.3379 38.9922C74.7012 38.7578 75.123 38.6406 75.6035 38.6406C76.0254 38.6406 76.4238 38.793 76.7988 39.0977C77.1738 39.4023 77.502 39.8242 77.7832 40.3633C78.0645 40.9023 78.2812 41.541 78.4336 42.2793C78.5977 43.0176 78.6797 43.8203 78.6797 44.6875C78.6797 45.3555 78.6387 46.0176 78.5566 46.6738C78.4746 47.3301 78.3457 47.9629 78.1699 48.5723C78.2988 48.6191 78.416 48.6484 78.5215 48.6602C78.6387 48.6602 78.7617 48.6602 78.8906 48.6602C79.2773 48.6602 79.6172 48.5898 79.9102 48.4492C80.2148 48.3086 80.4727 48.1211 80.6836 47.8867C80.8945 47.6523 81.0645 47.377 81.1934 47.0605C81.3223 46.7441 81.416 46.4102 81.4746 46.0586ZM74.6016 42.7188C74.6016 43.5273 74.7246 44.2949 74.9707 45.0215C75.2285 45.748 75.5625 46.3809 75.9727 46.9199C76.043 46.3457 76.0781 45.7949 76.0781 45.2676C76.0781 44.6582 76.0664 44.0957 76.043 43.5801C76.0312 43.0527 75.9902 42.6016 75.9199 42.2266C75.8613 41.8516 75.7734 41.5586 75.6562 41.3477C75.5508 41.125 75.4043 41.0137 75.2168 41.0137C74.8066 41.0137 74.6016 41.582 74.6016 42.7188ZM89.332 53.002C88.9102 53.002 88.4766 52.9375 88.0312 52.8086C87.5977 52.6797 87.1992 52.457 86.8359 52.1406C86.4844 51.8242 86.1914 51.4082 85.957 50.8926C85.7344 50.3652 85.623 49.7031 85.623 48.9062C85.623 47.7461 85.7754 46.5215 86.0801 45.2324C86.3965 43.9316 86.8477 42.502 87.4336 40.9434H84.6914H84.2871C84.2754 41.2949 84.252 41.7402 84.2168 42.2793C84.1934 42.8184 84.1465 43.3926 84.0762 44.002C84.0059 44.6113 83.9121 45.2266 83.7949 45.8477C83.6895 46.4688 83.5547 47.043 83.3906 47.5703C83.2734 47.9453 83.0859 48.1621 82.8281 48.2207C82.582 48.2793 82.3359 48.2383 82.0898 48.0977C81.8438 47.9453 81.6445 47.7285 81.4922 47.4473C81.3398 47.166 81.3047 46.873 81.3867 46.5684C81.4805 46.2051 81.5625 45.7656 81.6328 45.25C81.7031 44.7227 81.7559 44.1719 81.791 43.5977C81.8379 43.0117 81.873 42.4316 81.8965 41.8574C81.9199 41.2715 81.9375 40.75 81.9492 40.293C81.5039 40.0469 81.1348 39.7363 80.8418 39.3613C80.5488 38.9746 80.4023 38.5176 80.4023 37.9902C80.4023 37.7441 80.4492 37.5215 80.543 37.3223C80.6484 37.1113 80.7832 36.9355 80.9473 36.7949C81.1113 36.6426 81.3047 36.5312 81.5273 36.4609C81.75 36.3789 81.9785 36.3379 82.2129 36.3379C82.4238 36.3379 82.6406 36.3672 82.8633 36.4258C83.0977 36.4844 83.3145 36.5898 83.5137 36.7422C83.7246 36.8945 83.9121 37.0938 84.0762 37.3398C84.2402 37.5859 84.375 37.8906 84.4805 38.2539C84.7734 38.2891 85.0195 38.3184 85.2188 38.3418C85.4297 38.3535 85.6055 38.3652 85.7461 38.377C85.8867 38.3887 86.0039 38.3945 86.0977 38.3945C86.1914 38.3945 86.2852 38.3945 86.3789 38.3945H88.2598C88.3652 38.3945 88.5176 38.459 88.7168 38.5879C88.9277 38.7168 89.1328 38.8867 89.332 39.0977C89.5312 39.2969 89.6953 39.5137 89.8242 39.748C89.9648 39.9824 90.0176 40.2051 89.9824 40.416C89.9824 40.4863 89.9414 40.6562 89.8594 40.9258C89.7773 41.1953 89.6777 41.5352 89.5605 41.9453C89.4434 42.3555 89.3145 42.8301 89.1738 43.3691C89.0332 43.8965 88.9043 44.4531 88.7871 45.0391C88.6699 45.625 88.5703 46.2344 88.4883 46.8672C88.4062 47.4883 88.3652 48.0977 88.3652 48.6953C88.3652 48.9414 88.3945 49.1816 88.4531 49.416C88.5117 49.6504 88.5996 49.8613 88.7168 50.0488C88.834 50.2246 88.9805 50.3652 89.1562 50.4707C89.3438 50.5762 89.5605 50.6289 89.8066 50.6289C90.2168 50.6289 90.5684 50.5 90.8613 50.2422C91.1543 49.9844 91.4004 49.6621 91.5996 49.2754C91.7988 48.8887 91.957 48.4727 92.0742 48.0273C92.2031 47.5703 92.3086 47.1426 92.3906 46.7441C92.4609 46.3691 92.5781 46.0996 92.7422 45.9355C92.9062 45.7598 93.0762 45.6719 93.252 45.6719C93.3926 45.6719 93.5391 45.7188 93.6914 45.8125C93.8438 45.8945 93.9785 46.0059 94.0957 46.1465C94.2246 46.2871 94.3242 46.4453 94.3945 46.6211C94.4766 46.7969 94.5176 46.9727 94.5176 47.1484C94.5176 47.207 94.5117 47.2539 94.5 47.2891C94.4883 47.3242 94.4824 47.3594 94.4824 47.3945C94.3184 47.9922 94.1016 48.6191 93.832 49.2754C93.5742 49.9316 93.2402 50.5352 92.8301 51.0859C92.4199 51.6367 91.9277 52.0938 91.3535 52.457C90.7793 52.8203 90.1055 53.002 89.332 53.002Z" fill="black"/>
</svg>
